{
	"patcher" : 	{
		"fileversion" : 1,
		"appversion" : 		{
			"major" : 8,
			"minor" : 5,
			"revision" : 5,
			"architecture" : "x64",
			"modernui" : 1
		}
,
		"classnamespace" : "box",
		"rect" : [ 42.0, 85.0, 1402.0, 969.0 ],
		"bglocked" : 0,
		"openinpresentation" : 0,
		"default_fontsize" : 12.0,
		"default_fontface" : 0,
		"default_fontname" : "Arial",
		"gridonopen" : 1,
		"gridsize" : [ 15.0, 15.0 ],
		"gridsnaponopen" : 1,
		"objectsnaponopen" : 1,
		"statusbarvisible" : 2,
		"toolbarvisible" : 1,
		"lefttoolbarpinned" : 0,
		"toptoolbarpinned" : 0,
		"righttoolbarpinned" : 0,
		"bottomtoolbarpinned" : 0,
		"toolbars_unpinned_last_save" : 0,
		"tallnewobj" : 0,
		"boxanimatetime" : 200,
		"enablehscroll" : 1,
		"enablevscroll" : 1,
		"devicewidth" : 0.0,
		"description" : "",
		"digest" : "",
		"tags" : "",
		"style" : "",
		"subpatcher_template" : "",
		"assistshowspatchername" : 0,
		"boxes" : [ 			{
				"box" : 				{
					"id" : "obj-64",
					"maxclass" : "message",
					"numinlets" : 2,
					"numoutlets" : 1,
					"outlettype" : [ "" ],
					"patching_rect" : [ 2286.666612505912781, 49.272727012634277, 29.5, 22.0 ],
					"text" : "0"
				}

			}
, 			{
				"box" : 				{
					"id" : "obj-65",
					"maxclass" : "message",
					"numinlets" : 2,
					"numoutlets" : 1,
					"outlettype" : [ "" ],
					"patching_rect" : [ 2246.666613459587097, 55.889477014541626, 29.5, 22.0 ],
					"text" : "1"
				}

			}
, 			{
				"box" : 				{
					"id" : "obj-63",
					"maxclass" : "message",
					"numinlets" : 2,
					"numoutlets" : 1,
					"outlettype" : [ "" ],
					"patching_rect" : [ 2013.333285331726074, 46.716582059860229, 29.5, 22.0 ],
					"text" : "0"
				}

			}
, 			{
				"box" : 				{
					"id" : "obj-59",
					"maxclass" : "message",
					"numinlets" : 2,
					"numoutlets" : 1,
					"outlettype" : [ "" ],
					"patching_rect" : [ 1973.333286285400391, 53.333332061767578, 29.5, 22.0 ],
					"text" : "1"
				}

			}
, 			{
				"box" : 				{
					"id" : "obj-51",
					"maxclass" : "message",
					"numinlets" : 2,
					"numoutlets" : 1,
					"outlettype" : [ "" ],
					"patching_rect" : [ 1706.6666259765625, 68.333331704139709, 29.5, 22.0 ],
					"text" : "1"
				}

			}
, 			{
				"box" : 				{
					"id" : "obj-42",
					"maxclass" : "newobj",
					"numinlets" : 2,
					"numoutlets" : 1,
					"outlettype" : [ "float" ],
					"patching_rect" : [ 1253.452558279037476, 152.415252685546875, 40.0, 22.0 ],
					"text" : "* 0.95"
				}

			}
, 			{
				"box" : 				{
					"id" : "obj-28",
					"maxclass" : "newobj",
					"numinlets" : 1,
					"numoutlets" : 1,
					"outlettype" : [ "signal" ],
					"patching_rect" : [ 787.264197111129761, 795.0, 31.0, 22.0 ],
					"text" : "sig~"
				}

			}
, 			{
				"box" : 				{
					"id" : "obj-152",
					"linecount" : 6,
					"maxclass" : "comment",
					"numinlets" : 1,
					"numoutlets" : 0,
					"patching_rect" : [ 1041.196180701255798, 2211.815968990325928, 150.0, 89.0 ],
					"text" : "Subtracting a lowpass from the signal just creates a highpass. I was having feedback issues at DC, and this cleans that up nicely."
				}

			}
, 			{
				"box" : 				{
					"id" : "obj-146",
					"linecount" : 4,
					"maxclass" : "comment",
					"numinlets" : 1,
					"numoutlets" : 0,
					"patching_rect" : [ 1163.67918598651886, 2004.455153226852417, 150.0, 62.0 ],
					"text" : "Mixing in some octave shifting in the feedback to create cool shimmers and fat sound and such."
				}

			}
, 			{
				"box" : 				{
					"fontsize" : 72.0,
					"id" : "obj-142",
					"linecount" : 3,
					"maxclass" : "comment",
					"numinlets" : 1,
					"numoutlets" : 0,
					"patching_rect" : [ 1653.451039433479309, 1931.955153226852417, 842.0, 255.0 ],
					"text" : "New stuff over here!\n\n<---"
				}

			}
, 			{
				"box" : 				{
					"fontsize" : 72.0,
					"id" : "obj-121",
					"linecount" : 6,
					"maxclass" : "comment",
					"numinlets" : 1,
					"numoutlets" : 0,
					"patching_rect" : [ 1614.893605470657349, 943.633486390113831, 689.0, 503.0 ],
					"text" : "The same thing is just repeated 3 more times. I should have put these in their own abstraction in hindsight."
				}

			}
, 			{
				"box" : 				{
					"id" : "obj-110",
					"linecount" : 4,
					"maxclass" : "comment",
					"numinlets" : 1,
					"numoutlets" : 0,
					"patching_rect" : [ 1273.924824953079224, 714.0, 150.0, 62.0 ],
					"text" : "Modulating the delay time helps prevent the reverb from sounding ringy and boxy"
				}

			}
, 			{
				"box" : 				{
					"id" : "obj-106",
					"linecount" : 4,
					"maxclass" : "comment",
					"numinlets" : 1,
					"numoutlets" : 0,
					"patching_rect" : [ 388.0, 943.633486390113831, 150.0, 62.0 ],
					"text" : "Different delay amounts on the left and right portions create a wide stereo image"
				}

			}
, 			{
				"box" : 				{
					"id" : "obj-104",
					"linecount" : 6,
					"maxclass" : "comment",
					"numinlets" : 1,
					"numoutlets" : 0,
					"patching_rect" : [ 975.0, 959.0, 154.0, 89.0 ],
					"text" : "dcy stands for \"decay\" and this parameter controls how much of the signal goes through the following allpass blocks (and is eventually fed back"
				}

			}
, 			{
				"box" : 				{
					"id" : "obj-96",
					"maxclass" : "comment",
					"numinlets" : 1,
					"numoutlets" : 0,
					"patching_rect" : [ 825.922187089920044, 915.120634317398071, 150.0, 20.0 ],
					"text" : "Extra plain-old delay"
				}

			}
, 			{
				"box" : 				{
					"id" : "obj-88",
					"linecount" : 3,
					"maxclass" : "comment",
					"numinlets" : 1,
					"numoutlets" : 0,
					"patching_rect" : [ 576.0, 800.0, 150.0, 48.0 ],
					"text" : "Allpass filters smear the phase and add some time delay"
				}

			}
, 			{
				"box" : 				{
					"id" : "obj-86",
					"linecount" : 4,
					"maxclass" : "comment",
					"numinlets" : 1,
					"numoutlets" : 0,
					"patching_rect" : [ 1311.0, 231.063799858093262, 151.0, 62.0 ],
					"text" : "Maxes out at 0.965 because that's what I could comfortably achieve without feedback"
				}

			}
, 			{
				"box" : 				{
					"id" : "obj-81",
					"linecount" : 5,
					"maxclass" : "comment",
					"numinlets" : 1,
					"numoutlets" : 0,
					"patching_rect" : [ 445.0, 470.0, 153.0, 75.0 ],
					"text" : "This tapped delay setup smears the input transient, making the reverb sound bigger (and hiding the echos of the delay)"
				}

			}
, 			{
				"box" : 				{
					"id" : "obj-78",
					"maxclass" : "comment",
					"numinlets" : 1,
					"numoutlets" : 0,
					"patching_rect" : [ 651.749350070953369, 107.446795701980591, 150.0, 20.0 ],
					"text" : "Summing stereo to mono"
				}

			}
, 			{
				"box" : 				{
					"id" : "obj-62",
					"linecount" : 2,
					"maxclass" : "comment",
					"numinlets" : 1,
					"numoutlets" : 0,
					"patching_rect" : [ 901.0, 245.063799858093262, 150.0, 34.0 ],
					"text" : "Using a single pole to have more subtle rolloff"
				}

			}
, 			{
				"box" : 				{
					"id" : "obj-41",
					"linecount" : 2,
					"maxclass" : "comment",
					"numinlets" : 1,
					"numoutlets" : 0,
					"patching_rect" : [ 120.0, 34.716582059860229, 150.0, 34.0 ],
					"text" : "This one is long, so get ready."
				}

			}
, 			{
				"box" : 				{
					"id" : "obj-60",
					"linecount" : 3,
					"maxclass" : "newobj",
					"numinlets" : 0,
					"numoutlets" : 1,
					"outlettype" : [ "" ],
					"patching_rect" : [ 1022.525556802749634, 2048.455153226852417, 52.0, 22.0 ],
					"text" : "r #0octu"
				}

			}
, 			{
				"box" : 				{
					"id" : "obj-55",
					"linecount" : 3,
					"maxclass" : "newobj",
					"numinlets" : 1,
					"numoutlets" : 0,
					"patching_rect" : [ 2344.640074491500854, 176.84209156036377, 54.0, 22.0 ],
					"text" : "s #0octu"
				}

			}
, 			{
				"box" : 				{
					"id" : "obj-54",
					"linecount" : 3,
					"maxclass" : "newobj",
					"numinlets" : 1,
					"numoutlets" : 0,
					"patching_rect" : [ 2057.547060966491699, 176.84209156036377, 54.0, 22.0 ],
					"text" : "s #0octd"
				}

			}
, 			{
				"box" : 				{
					"id" : "obj-53",
					"linecount" : 3,
					"maxclass" : "newobj",
					"numinlets" : 0,
					"numoutlets" : 1,
					"outlettype" : [ "" ],
					"patching_rect" : [ 877.76240861415863, 2048.455153226852417, 52.0, 22.0 ],
					"text" : "r #0octd"
				}

			}
, 			{
				"box" : 				{
					"id" : "obj-52",
					"maxclass" : "newobj",
					"numinlets" : 2,
					"numoutlets" : 1,
					"outlettype" : [ "signal" ],
					"patching_rect" : [ 756.548632979393005, 2165.659059882164001, 29.5, 22.0 ],
					"text" : "+~"
				}

			}
, 			{
				"box" : 				{
					"id" : "obj-50",
					"maxclass" : "newobj",
					"numinlets" : 2,
					"numoutlets" : 1,
					"outlettype" : [ "signal" ],
					"patching_rect" : [ 846.76240861415863, 2123.290640950202942, 29.5, 22.0 ],
					"text" : "+~"
				}

			}
, 			{
				"box" : 				{
					"id" : "obj-48",
					"maxclass" : "newobj",
					"numinlets" : 2,
					"numoutlets" : 1,
					"outlettype" : [ "signal" ],
					"patching_rect" : [ 987.025556802749634, 2073.928833603858948, 29.5, 22.0 ],
					"text" : "*~"
				}

			}
, 			{
				"box" : 				{
					"id" : "obj-45",
					"maxclass" : "newobj",
					"numinlets" : 2,
					"numoutlets" : 1,
					"outlettype" : [ "signal" ],
					"patching_rect" : [ 846.76240861415863, 2073.928833603858948, 29.5, 22.0 ],
					"text" : "*~"
				}

			}
, 			{
				"box" : 				{
					"id" : "obj-43",
					"maxclass" : "newobj",
					"numinlets" : 1,
					"numoutlets" : 1,
					"outlettype" : [ "" ],
					"patching_rect" : [ 1029.025556802749634, 1971.45924711227417, 77.0, 22.0 ],
					"text" : "loadmess 30"
				}

			}
, 			{
				"box" : 				{
					"id" : "obj-44",
					"maxclass" : "newobj",
					"numinlets" : 1,
					"numoutlets" : 1,
					"outlettype" : [ "" ],
					"patching_rect" : [ 997.525556802749634, 1943.876159310340881, 77.0, 22.0 ],
					"text" : "loadmess 12"
				}

			}
, 			{
				"box" : 				{
					"id" : "obj-40",
					"maxclass" : "newobj",
					"numinlets" : 1,
					"numoutlets" : 1,
					"outlettype" : [ "" ],
					"patching_rect" : [ 888.76240861415863, 1971.45924711227417, 77.0, 22.0 ],
					"text" : "loadmess 30"
				}

			}
, 			{
				"box" : 				{
					"id" : "obj-39",
					"maxclass" : "newobj",
					"numinlets" : 1,
					"numoutlets" : 1,
					"outlettype" : [ "" ],
					"patching_rect" : [ 857.26240861415863, 1943.876159310340881, 81.0, 22.0 ],
					"text" : "loadmess -12"
				}

			}
, 			{
				"box" : 				{
					"id" : "obj-38",
					"maxclass" : "newobj",
					"numinlets" : 6,
					"numoutlets" : 1,
					"outlettype" : [ "signal" ],
					"patching_rect" : [ 987.025556802749634, 2024.455153226852417, 71.5, 22.0 ],
					"text" : "freq_shift"
				}

			}
, 			{
				"box" : 				{
					"id" : "obj-37",
					"maxclass" : "newobj",
					"numinlets" : 6,
					"numoutlets" : 1,
					"outlettype" : [ "signal" ],
					"patching_rect" : [ 846.76240861415863, 2024.455153226852417, 71.5, 22.0 ],
					"text" : "freq_shift"
				}

			}
, 			{
				"box" : 				{
					"id" : "obj-35",
					"maxclass" : "newobj",
					"numinlets" : 1,
					"numoutlets" : 1,
					"outlettype" : [ "" ],
					"patching_rect" : [ 2344.640074491500854, 131.452855587005615, 137.0, 22.0 ],
					"text" : "if $f1 < 0 then 0 else $f1"
				}

			}
, 			{
				"box" : 				{
					"id" : "obj-36",
					"maxclass" : "newobj",
					"numinlets" : 1,
					"numoutlets" : 1,
					"outlettype" : [ "" ],
					"patching_rect" : [ 2344.640074491500854, 93.684203267097473, 137.0, 22.0 ],
					"text" : "if $f1 > 1 then 1 else $f1"
				}

			}
, 			{
				"box" : 				{
					"id" : "obj-33",
					"maxclass" : "newobj",
					"numinlets" : 1,
					"numoutlets" : 1,
					"outlettype" : [ "" ],
					"patching_rect" : [ 2057.547060966491699, 131.452855587005615, 137.0, 22.0 ],
					"text" : "if $f1 < 0 then 0 else $f1"
				}

			}
, 			{
				"box" : 				{
					"id" : "obj-34",
					"maxclass" : "newobj",
					"numinlets" : 1,
					"numoutlets" : 1,
					"outlettype" : [ "" ],
					"patching_rect" : [ 2057.547060966491699, 93.684203267097473, 137.0, 22.0 ],
					"text" : "if $f1 > 1 then 1 else $f1"
				}

			}
, 			{
				"box" : 				{
					"id" : "obj-32",
					"maxclass" : "newobj",
					"numinlets" : 1,
					"numoutlets" : 1,
					"outlettype" : [ "" ],
					"patching_rect" : [ 1791.025534272193909, 131.452855587005615, 137.0, 22.0 ],
					"text" : "if $f1 < 0 then 0 else $f1"
				}

			}
, 			{
				"box" : 				{
					"id" : "obj-31",
					"maxclass" : "newobj",
					"numinlets" : 1,
					"numoutlets" : 1,
					"outlettype" : [ "" ],
					"patching_rect" : [ 1791.025534272193909, 93.684203267097473, 137.0, 22.0 ],
					"text" : "if $f1 > 1 then 1 else $f1"
				}

			}
, 			{
				"box" : 				{
					"id" : "obj-30",
					"maxclass" : "comment",
					"numinlets" : 1,
					"numoutlets" : 0,
					"patching_rect" : [ 2326.138227581977844, 27.272727012634277, 150.0, 20.0 ],
					"text" : "Octave Up"
				}

			}
, 			{
				"box" : 				{
					"id" : "obj-29",
					"maxclass" : "comment",
					"numinlets" : 1,
					"numoutlets" : 0,
					"patching_rect" : [ 2032.558066844940186, 27.272727012634277, 150.0, 20.0 ],
					"text" : "Octave Down"
				}

			}
, 			{
				"box" : 				{
					"comment" : "(float): Octave up feedback, 0.0-1.0",
					"id" : "obj-27",
					"index" : 7,
					"maxclass" : "inlet",
					"numinlets" : 0,
					"numoutlets" : 1,
					"outlettype" : [ "" ],
					"patching_rect" : [ 2344.640074491500854, 54.395349502563477, 30.0, 30.0 ]
				}

			}
, 			{
				"box" : 				{
					"comment" : "(float): Octave down feedback, 0.0-1.0",
					"id" : "obj-11",
					"index" : 6,
					"maxclass" : "inlet",
					"numinlets" : 0,
					"numoutlets" : 1,
					"outlettype" : [ "" ],
					"patching_rect" : [ 2057.547060966491699, 54.545454025268555, 30.0, 30.0 ]
				}

			}
, 			{
				"box" : 				{
					"id" : "obj-24",
					"linecount" : 3,
					"maxclass" : "newobj",
					"numinlets" : 0,
					"numoutlets" : 1,
					"outlettype" : [ "" ],
					"patching_rect" : [ 656.592101812362671, 1984.524024486541748, 69.0, 22.0 ],
					"text" : "r #0drynum"
				}

			}
, 			{
				"box" : 				{
					"id" : "obj-25",
					"maxclass" : "newobj",
					"numinlets" : 2,
					"numoutlets" : 1,
					"outlettype" : [ "signal" ],
					"patching_rect" : [ 643.771589756011963, 2020.062485337257385, 30.0, 22.0 ],
					"text" : "*~ 1"
				}

			}
, 			{
				"box" : 				{
					"id" : "obj-26",
					"linecount" : 2,
					"maxclass" : "newobj",
					"numinlets" : 1,
					"numoutlets" : 1,
					"outlettype" : [ "signal" ],
					"patching_rect" : [ 643.771589756011963, 1955.455105781555176, 96.0, 22.0 ],
					"text" : "receive~ #0dryR"
				}

			}
, 			{
				"box" : 				{
					"id" : "obj-23",
					"maxclass" : "newobj",
					"numinlets" : 2,
					"numoutlets" : 1,
					"outlettype" : [ "signal" ],
					"patching_rect" : [ 804.249350070953369, 107.446795701980591, 29.5, 22.0 ],
					"text" : "+~"
				}

			}
, 			{
				"box" : 				{
					"id" : "obj-12",
					"maxclass" : "comment",
					"numinlets" : 1,
					"numoutlets" : 0,
					"patching_rect" : [ 806.68076229095459, 18.08510422706604, 65.255330562591553, 20.0 ],
					"text" : "Audio In R"
				}

			}
, 			{
				"box" : 				{
					"comment" : "(sig~): Audio in R",
					"id" : "obj-22",
					"index" : 2,
					"maxclass" : "inlet",
					"numinlets" : 0,
					"numoutlets" : 1,
					"outlettype" : [ "signal" ],
					"patching_rect" : [ 824.308427572250366, 38.716582059860229, 30.0, 30.0 ]
				}

			}
, 			{
				"box" : 				{
					"id" : "obj-3",
					"linecount" : 2,
					"maxclass" : "newobj",
					"numinlets" : 1,
					"numoutlets" : 0,
					"patching_rect" : [ 978.784302711486816, 69.307686805725098, 84.0, 22.0 ],
					"text" : "send~ #0dryR"
				}

			}
, 			{
				"box" : 				{
					"id" : "obj-21",
					"linecount" : 3,
					"maxclass" : "newobj",
					"numinlets" : 0,
					"numoutlets" : 1,
					"outlettype" : [ "" ],
					"patching_rect" : [ 594.156195282936096, 1920.455105781555176, 71.0, 22.0 ],
					"text" : "r #0wetnum"
				}

			}
, 			{
				"box" : 				{
					"id" : "obj-20",
					"linecount" : 3,
					"maxclass" : "newobj",
					"numinlets" : 0,
					"numoutlets" : 1,
					"outlettype" : [ "" ],
					"patching_rect" : [ 273.643393874168396, 1920.455105781555176, 71.0, 22.0 ],
					"text" : "r #0wetnum"
				}

			}
, 			{
				"box" : 				{
					"id" : "obj-19",
					"maxclass" : "newobj",
					"numinlets" : 2,
					"numoutlets" : 1,
					"outlettype" : [ "signal" ],
					"patching_rect" : [ 355.121818423271179, 1961.985563635826111, 30.0, 22.0 ],
					"text" : "*~ 0"
				}

			}
, 			{
				"box" : 				{
					"id" : "obj-18",
					"maxclass" : "newobj",
					"numinlets" : 2,
					"numoutlets" : 1,
					"outlettype" : [ "signal" ],
					"patching_rect" : [ 541.597432017326355, 1961.985563635826111, 30.0, 22.0 ],
					"text" : "*~ 0"
				}

			}
, 			{
				"box" : 				{
					"id" : "obj-17",
					"linecount" : 3,
					"maxclass" : "newobj",
					"numinlets" : 0,
					"numoutlets" : 1,
					"outlettype" : [ "" ],
					"patching_rect" : [ 174.592101812362671, 1949.524024486541748, 69.0, 22.0 ],
					"text" : "r #0drynum"
				}

			}
, 			{
				"box" : 				{
					"id" : "obj-16",
					"maxclass" : "newobj",
					"numinlets" : 2,
					"numoutlets" : 1,
					"outlettype" : [ "signal" ],
					"patching_rect" : [ 161.771589756011963, 1985.062485337257385, 30.0, 22.0 ],
					"text" : "*~ 1"
				}

			}
, 			{
				"box" : 				{
					"id" : "obj-15",
					"linecount" : 2,
					"maxclass" : "newobj",
					"numinlets" : 1,
					"numoutlets" : 1,
					"outlettype" : [ "signal" ],
					"patching_rect" : [ 161.771589756011963, 1920.455105781555176, 94.0, 22.0 ],
					"text" : "receive~ #0dryL"
				}

			}
, 			{
				"box" : 				{
					"id" : "obj-14",
					"maxclass" : "newobj",
					"numinlets" : 2,
					"numoutlets" : 1,
					"outlettype" : [ "signal" ],
					"patching_rect" : [ 541.597432017326355, 2029.934277534484863, 29.5, 22.0 ],
					"text" : "+~"
				}

			}
, 			{
				"box" : 				{
					"id" : "obj-13",
					"maxclass" : "newobj",
					"numinlets" : 2,
					"numoutlets" : 1,
					"outlettype" : [ "signal" ],
					"patching_rect" : [ 344.621818423271179, 2029.934277534484863, 29.5, 22.0 ],
					"text" : "+~"
				}

			}
, 			{
				"box" : 				{
					"id" : "obj-9",
					"linecount" : 2,
					"maxclass" : "newobj",
					"numinlets" : 1,
					"numoutlets" : 0,
					"patching_rect" : [ 569.230735301971436, 92.307686805725098, 82.0, 22.0 ],
					"text" : "send~ #0dryL"
				}

			}
, 			{
				"box" : 				{
					"id" : "obj-7",
					"linecount" : 2,
					"maxclass" : "newobj",
					"numinlets" : 1,
					"numoutlets" : 0,
					"patching_rect" : [ 1818.846046328544617, 215.452077984809875, 76.820512056350708, 22.0 ],
					"text" : "s #0wetnum"
				}

			}
, 			{
				"box" : 				{
					"id" : "obj-6",
					"linecount" : 3,
					"maxclass" : "newobj",
					"numinlets" : 1,
					"numoutlets" : 0,
					"patching_rect" : [ 1735.897332429885864, 215.452077984809875, 71.0, 22.0 ],
					"text" : "s #0drynum"
				}

			}
, 			{
				"box" : 				{
					"id" : "obj-5",
					"maxclass" : "newobj",
					"numinlets" : 1,
					"numoutlets" : 1,
					"outlettype" : [ "" ],
					"patching_rect" : [ 1735.897332429885864, 171.862336993217468, 63.0, 22.0 ],
					"text" : "expr 1-$f1"
				}

			}
, 			{
				"box" : 				{
					"id" : "obj-4",
					"maxclass" : "comment",
					"numinlets" : 1,
					"numoutlets" : 0,
					"patching_rect" : [ 1786.794761717319489, 18.08510422706604, 38.46154510974884, 20.0 ],
					"text" : "Mix"
				}

			}
, 			{
				"box" : 				{
					"comment" : "(float): Mix, 0.0-1.0",
					"id" : "obj-1",
					"index" : 5,
					"maxclass" : "inlet",
					"numinlets" : 0,
					"numoutlets" : 1,
					"outlettype" : [ "" ],
					"patching_rect" : [ 1791.025534272193909, 54.545454025268555, 30.0, 30.0 ]
				}

			}
, 			{
				"box" : 				{
					"id" : "obj-265",
					"maxclass" : "newobj",
					"numinlets" : 1,
					"numoutlets" : 1,
					"outlettype" : [ "" ],
					"patching_rect" : [ 1360.471716165542603, 1495.3299880027771, 77.0, 22.0 ],
					"text" : "loadmess 19"
				}

			}
, 			{
				"box" : 				{
					"id" : "obj-266",
					"maxclass" : "newobj",
					"numinlets" : 1,
					"numoutlets" : 1,
					"outlettype" : [ "" ],
					"patching_rect" : [ 1284.730115652084351, 1395.329988956451416, 70.0, 22.0 ],
					"text" : "loadmess 4"
				}

			}
, 			{
				"box" : 				{
					"id" : "obj-263",
					"maxclass" : "newobj",
					"numinlets" : 1,
					"numoutlets" : 1,
					"outlettype" : [ "" ],
					"patching_rect" : [ 1192.199610710144043, 1266.290120720863342, 80.0, 22.0 ],
					"text" : "loadmess 38."
				}

			}
, 			{
				"box" : 				{
					"id" : "obj-264",
					"maxclass" : "newobj",
					"numinlets" : 1,
					"numoutlets" : 1,
					"outlettype" : [ "" ],
					"patching_rect" : [ 1087.069107055664062, 1176.978432297706604, 84.0, 22.0 ],
					"text" : "loadmess -8.2"
				}

			}
, 			{
				"box" : 				{
					"id" : "obj-251",
					"maxclass" : "newobj",
					"numinlets" : 1,
					"numoutlets" : 1,
					"outlettype" : [ "" ],
					"patching_rect" : [ 992.983711719512939, 1582.455638885498047, 87.0, 22.0 ],
					"text" : "loadmess 28.1"
				}

			}
, 			{
				"box" : 				{
					"id" : "obj-252",
					"maxclass" : "newobj",
					"numinlets" : 1,
					"numoutlets" : 1,
					"outlettype" : [ "" ],
					"patching_rect" : [ 857.977972745895386, 1619.073797821998596, 93.0, 22.0 ],
					"text" : "loadmess 0.144"
				}

			}
, 			{
				"box" : 				{
					"id" : "obj-253",
					"maxclass" : "newobj",
					"numinlets" : 1,
					"numoutlets" : 1,
					"outlettype" : [ "" ],
					"patching_rect" : [ 857.977972745895386, 1585.307564377784729, 87.0, 22.0 ],
					"text" : "loadmess 0.22"
				}

			}
, 			{
				"box" : 				{
					"id" : "obj-254",
					"maxclass" : "newobj",
					"numinlets" : 1,
					"numoutlets" : 1,
					"outlettype" : [ "signal" ],
					"patching_rect" : [ 992.983711719512939, 1615.747740983963013, 31.0, 22.0 ],
					"text" : "sig~"
				}

			}
, 			{
				"box" : 				{
					"id" : "obj-247",
					"maxclass" : "newobj",
					"numinlets" : 1,
					"numoutlets" : 1,
					"outlettype" : [ "" ],
					"patching_rect" : [ 949.195013761520386, 1374.037885904312134, 80.0, 22.0 ],
					"text" : "loadmess 26."
				}

			}
, 			{
				"box" : 				{
					"id" : "obj-248",
					"maxclass" : "newobj",
					"numinlets" : 1,
					"numoutlets" : 1,
					"outlettype" : [ "" ],
					"patching_rect" : [ 845.44712495803833, 1407.3299880027771, 91.0, 22.0 ],
					"text" : "loadmess -0.09"
				}

			}
, 			{
				"box" : 				{
					"id" : "obj-249",
					"maxclass" : "newobj",
					"numinlets" : 1,
					"numoutlets" : 1,
					"outlettype" : [ "" ],
					"patching_rect" : [ 845.44712495803833, 1367.070248126983643, 93.0, 22.0 ],
					"text" : "loadmess 0.254"
				}

			}
, 			{
				"box" : 				{
					"id" : "obj-250",
					"maxclass" : "newobj",
					"numinlets" : 1,
					"numoutlets" : 1,
					"outlettype" : [ "signal" ],
					"patching_rect" : [ 949.195013761520386, 1407.3299880027771, 31.0, 22.0 ],
					"text" : "sig~"
				}

			}
, 			{
				"box" : 				{
					"id" : "obj-246",
					"maxclass" : "newobj",
					"numinlets" : 1,
					"numoutlets" : 1,
					"outlettype" : [ "" ],
					"patching_rect" : [ 1011.253454923629761, 1110.022412180900574, 87.0, 22.0 ],
					"text" : "loadmess 18.8"
				}

			}
, 			{
				"box" : 				{
					"id" : "obj-244",
					"maxclass" : "newobj",
					"numinlets" : 1,
					"numoutlets" : 1,
					"outlettype" : [ "" ],
					"patching_rect" : [ 865.94712495803833, 1136.363625526428223, 93.0, 22.0 ],
					"text" : "loadmess 0.226"
				}

			}
, 			{
				"box" : 				{
					"id" : "obj-243",
					"maxclass" : "newobj",
					"numinlets" : 1,
					"numoutlets" : 1,
					"outlettype" : [ "" ],
					"patching_rect" : [ 865.94712495803833, 1096.103885650634766, 93.0, 22.0 ],
					"text" : "loadmess 0.085"
				}

			}
, 			{
				"box" : 				{
					"id" : "obj-242",
					"maxclass" : "newobj",
					"numinlets" : 1,
					"numoutlets" : 1,
					"outlettype" : [ "" ],
					"patching_rect" : [ 1360.471716165542603, 1022.077912330627441, 80.0, 22.0 ],
					"text" : "loadmess 16."
				}

			}
, 			{
				"box" : 				{
					"id" : "obj-241",
					"maxclass" : "newobj",
					"numinlets" : 1,
					"numoutlets" : 1,
					"outlettype" : [ "" ],
					"patching_rect" : [ 1285.119946002960205, 919.480510711669922, 80.0, 22.0 ],
					"text" : "loadmess 2.7"
				}

			}
, 			{
				"box" : 				{
					"id" : "obj-238",
					"maxclass" : "newobj",
					"numinlets" : 1,
					"numoutlets" : 1,
					"outlettype" : [ "" ],
					"patching_rect" : [ 865.94712495803833, 844.15583610534668, 93.0, 22.0 ],
					"text" : "loadmess 0.257"
				}

			}
, 			{
				"box" : 				{
					"id" : "obj-237",
					"maxclass" : "newobj",
					"numinlets" : 1,
					"numoutlets" : 1,
					"outlettype" : [ "" ],
					"patching_rect" : [ 978.784302711486816, 832.467524528503418, 80.0, 22.0 ],
					"text" : "loadmess 23."
				}

			}
, 			{
				"box" : 				{
					"id" : "obj-236",
					"maxclass" : "newobj",
					"numinlets" : 1,
					"numoutlets" : 1,
					"outlettype" : [ "" ],
					"patching_rect" : [ 865.94712495803833, 806.990453958511353, 93.0, 22.0 ],
					"text" : "loadmess 0.217"
				}

			}
, 			{
				"box" : 				{
					"id" : "obj-235",
					"maxclass" : "newobj",
					"numinlets" : 1,
					"numoutlets" : 1,
					"outlettype" : [ "" ],
					"patching_rect" : [ 787.264197111129761, 754.0, 80.0, 22.0 ],
					"text" : "loadmess 18."
				}

			}
, 			{
				"box" : 				{
					"id" : "obj-233",
					"maxclass" : "newobj",
					"numinlets" : 1,
					"numoutlets" : 1,
					"outlettype" : [ "" ],
					"patching_rect" : [ 1138.961028099060059, 54.545454025268555, 87.0, 22.0 ],
					"text" : "loadmess 0.85"
				}

			}
, 			{
				"box" : 				{
					"id" : "obj-231",
					"maxclass" : "comment",
					"numinlets" : 1,
					"numoutlets" : 0,
					"patching_rect" : [ 1249.350637435913086, 27.272727012634277, 43.506494522094727, 20.0 ],
					"text" : "Decay"
				}

			}
, 			{
				"box" : 				{
					"comment" : "(float): Decay, 0.0-0.99",
					"id" : "obj-229",
					"index" : 4,
					"maxclass" : "inlet",
					"numinlets" : 0,
					"numoutlets" : 1,
					"outlettype" : [ "" ],
					"patching_rect" : [ 1253.452558279037476, 54.545454025268555, 30.0, 30.0 ]
				}

			}
, 			{
				"box" : 				{
					"id" : "obj-228",
					"linecount" : 3,
					"maxclass" : "newobj",
					"numinlets" : 0,
					"numoutlets" : 1,
					"outlettype" : [ "" ],
					"patching_rect" : [ 646.700073719024658, 210.389608383178711, 48.0, 22.0 ],
					"text" : "r #0dcy"
				}

			}
, 			{
				"box" : 				{
					"id" : "obj-227",
					"maxclass" : "comment",
					"numinlets" : 1,
					"numoutlets" : 0,
					"patching_rect" : [ 736.68076229095459, 18.08510422706604, 63.0, 20.0 ],
					"text" : "Audio In L"
				}

			}
, 			{
				"box" : 				{
					"id" : "obj-225",
					"maxclass" : "comment",
					"numinlets" : 1,
					"numoutlets" : 0,
					"patching_rect" : [ 885.106277465820312, 107.446795701980591, 47.872352600097656, 20.0 ],
					"text" : "Hi-Cut"
				}

			}
, 			{
				"box" : 				{
					"format" : 6,
					"id" : "obj-223",
					"maxclass" : "flonum",
					"numinlets" : 1,
					"numoutlets" : 2,
					"outlettype" : [ "", "bang" ],
					"parameter_enable" : 0,
					"patching_rect" : [ 646.808433532714844, 304.255282878875732, 50.0, 22.0 ]
				}

			}
, 			{
				"box" : 				{
					"format" : 6,
					"id" : "obj-220",
					"maxclass" : "flonum",
					"numinlets" : 1,
					"numoutlets" : 2,
					"outlettype" : [ "", "bang" ],
					"parameter_enable" : 0,
					"patching_rect" : [ 884.921483397483826, 189.936986923217773, 85.106378793716431, 22.0 ]
				}

			}
, 			{
				"box" : 				{
					"comment" : "(float): Hicut, Hz.",
					"id" : "obj-212",
					"index" : 3,
					"maxclass" : "inlet",
					"numinlets" : 0,
					"numoutlets" : 1,
					"outlettype" : [ "" ],
					"patching_rect" : [ 884.921483397483826, 136.415252685546875, 30.0, 30.0 ]
				}

			}
, 			{
				"box" : 				{
					"id" : "obj-211",
					"maxclass" : "newobj",
					"numinlets" : 2,
					"numoutlets" : 1,
					"outlettype" : [ "signal" ],
					"patching_rect" : [ 793.749350070953369, 251.063799858093262, 95.0, 22.0 ],
					"text" : "onepole~ 10000"
				}

			}
, 			{
				"box" : 				{
					"id" : "obj-209",
					"maxclass" : "newobj",
					"numinlets" : 2,
					"numoutlets" : 1,
					"outlettype" : [ "float" ],
					"patching_rect" : [ 646.700073719024658, 251.063799858093262, 33.0, 22.0 ],
					"text" : "* 30."
				}

			}
, 			{
				"box" : 				{
					"id" : "obj-207",
					"maxclass" : "newobj",
					"numinlets" : 2,
					"numoutlets" : 1,
					"outlettype" : [ "float" ],
					"patching_rect" : [ 1053.083003997802734, 330.869073271751404, 29.5, 22.0 ],
					"text" : "/ 4."
				}

			}
, 			{
				"box" : 				{
					"id" : "obj-205",
					"maxclass" : "newobj",
					"numinlets" : 2,
					"numoutlets" : 1,
					"outlettype" : [ "float" ],
					"patching_rect" : [ 945.26639461517334, 373.404210805892944, 32.0, 22.0 ],
					"text" : "* 11."
				}

			}
, 			{
				"box" : 				{
					"id" : "obj-202",
					"maxclass" : "newobj",
					"numinlets" : 2,
					"numoutlets" : 1,
					"outlettype" : [ "float" ],
					"patching_rect" : [ 871.769503831863403, 373.404210805892944, 29.5, 22.0 ],
					"text" : "* 7."
				}

			}
, 			{
				"box" : 				{
					"id" : "obj-201",
					"maxclass" : "newobj",
					"numinlets" : 2,
					"numoutlets" : 1,
					"outlettype" : [ "float" ],
					"patching_rect" : [ 784.6505126953125, 373.404210805892944, 29.5, 22.0 ],
					"text" : "* 5."
				}

			}
, 			{
				"box" : 				{
					"id" : "obj-199",
					"maxclass" : "newobj",
					"numinlets" : 2,
					"numoutlets" : 1,
					"outlettype" : [ "float" ],
					"patching_rect" : [ 709.89571738243103, 373.404210805892944, 29.5, 22.0 ],
					"text" : "* 2."
				}

			}
, 			{
				"box" : 				{
					"id" : "obj-180",
					"maxclass" : "newobj",
					"numinlets" : 2,
					"numoutlets" : 1,
					"outlettype" : [ "signal" ],
					"patching_rect" : [ 1053.083003997802734, 370.212721824645996, 37.0, 22.0 ],
					"text" : "*~ 10"
				}

			}
, 			{
				"box" : 				{
					"id" : "obj-178",
					"maxclass" : "newobj",
					"numinlets" : 2,
					"numoutlets" : 1,
					"outlettype" : [ "signal" ],
					"patching_rect" : [ 871.769503831863403, 416.063781976699829, 46.0, 22.0 ],
					"text" : "+~ 200"
				}

			}
, 			{
				"box" : 				{
					"id" : "obj-177",
					"maxclass" : "newobj",
					"numinlets" : 2,
					"numoutlets" : 1,
					"outlettype" : [ "signal" ],
					"patching_rect" : [ 709.89571738243103, 419.148886203765869, 46.0, 22.0 ],
					"text" : "+~ 100"
				}

			}
, 			{
				"box" : 				{
					"id" : "obj-174",
					"linecount" : 2,
					"maxclass" : "newobj",
					"numinlets" : 1,
					"numoutlets" : 1,
					"outlettype" : [ "signal" ],
					"patching_rect" : [ 1071.083003997802734, 285.124397873878479, 101.0, 22.0 ],
					"text" : "receive~ #0mod1"
				}

			}
, 			{
				"box" : 				{
					"id" : "obj-173",
					"maxclass" : "newobj",
					"numinlets" : 2,
					"numoutlets" : 1,
					"outlettype" : [ "signal" ],
					"patching_rect" : [ 757.264197111129761, 609.401260614395142, 29.5, 22.0 ],
					"text" : "/~ 5"
				}

			}
, 			{
				"box" : 				{
					"id" : "obj-172",
					"maxclass" : "newobj",
					"numinlets" : 1,
					"numoutlets" : 1,
					"outlettype" : [ "signal" ],
					"patching_rect" : [ 945.26639461517334, 455.912894010543823, 72.0, 22.0 ],
					"text" : "tapout~ 150"
				}

			}
, 			{
				"box" : 				{
					"id" : "obj-171",
					"maxclass" : "newobj",
					"numinlets" : 1,
					"numoutlets" : 1,
					"outlettype" : [ "signal" ],
					"patching_rect" : [ 864.922187089920044, 455.912894010543823, 72.0, 22.0 ],
					"text" : "tapout~ 120"
				}

			}
, 			{
				"box" : 				{
					"id" : "obj-164",
					"maxclass" : "newobj",
					"numinlets" : 1,
					"numoutlets" : 1,
					"outlettype" : [ "signal" ],
					"patching_rect" : [ 784.6505126953125, 455.912894010543823, 66.0, 22.0 ],
					"text" : "tapout~ 90"
				}

			}
, 			{
				"box" : 				{
					"id" : "obj-163",
					"maxclass" : "newobj",
					"numinlets" : 1,
					"numoutlets" : 1,
					"outlettype" : [ "signal" ],
					"patching_rect" : [ 709.89571738243103, 455.912894010543823, 66.0, 22.0 ],
					"text" : "tapout~ 60"
				}

			}
, 			{
				"box" : 				{
					"id" : "obj-162",
					"maxclass" : "newobj",
					"numinlets" : 1,
					"numoutlets" : 1,
					"outlettype" : [ "signal" ],
					"patching_rect" : [ 626.898938179016113, 455.912894010543823, 66.0, 22.0 ],
					"text" : "tapout~ 30"
				}

			}
, 			{
				"box" : 				{
					"id" : "obj-160",
					"maxclass" : "newobj",
					"numinlets" : 1,
					"numoutlets" : 1,
					"outlettype" : [ "tapconnect" ],
					"patching_rect" : [ 793.749350070953369, 294.698864817619324, 65.0, 22.0 ],
					"text" : "tapin~ 400"
				}

			}
, 			{
				"box" : 				{
					"fontface" : 0,
					"fontname" : "Arial",
					"fontsize" : 12.0,
					"id" : "obj-111",
					"maxclass" : "number~",
					"mode" : 2,
					"numinlets" : 2,
					"numoutlets" : 2,
					"outlettype" : [ "signal", "float" ],
					"patching_rect" : [ 1285.28458046913147, 1110.022412180900574, 56.0, 22.0 ],
					"sig" : 0.0
				}

			}
, 			{
				"box" : 				{
					"id" : "obj-112",
					"maxclass" : "newobj",
					"numinlets" : 2,
					"numoutlets" : 1,
					"outlettype" : [ "signal" ],
					"patching_rect" : [ 1285.119946002960205, 1056.363874316215515, 29.5, 22.0 ],
					"text" : "+~"
				}

			}
, 			{
				"box" : 				{
					"id" : "obj-113",
					"linecount" : 2,
					"maxclass" : "newobj",
					"numinlets" : 1,
					"numoutlets" : 1,
					"outlettype" : [ "signal" ],
					"patching_rect" : [ 1322.924824953079224, 953.632168889045715, 101.0, 22.0 ],
					"text" : "receive~ #0mod1"
				}

			}
, 			{
				"box" : 				{
					"id" : "obj-119",
					"maxclass" : "newobj",
					"numinlets" : 2,
					"numoutlets" : 1,
					"outlettype" : [ "signal" ],
					"patching_rect" : [ 1285.119946002960205, 984.119974493980408, 29.5, 22.0 ],
					"text" : "*~"
				}

			}
, 			{
				"box" : 				{
					"fontface" : 0,
					"fontname" : "Arial",
					"fontsize" : 12.0,
					"id" : "obj-102",
					"maxclass" : "number~",
					"mode" : 2,
					"numinlets" : 2,
					"numoutlets" : 2,
					"outlettype" : [ "signal", "float" ],
					"patching_rect" : [ 1284.894750118255615, 1582.455638885498047, 56.0, 22.0 ],
					"sig" : 0.0
				}

			}
, 			{
				"box" : 				{
					"id" : "obj-103",
					"maxclass" : "newobj",
					"numinlets" : 2,
					"numoutlets" : 1,
					"outlettype" : [ "signal" ],
					"patching_rect" : [ 1284.730115652084351, 1528.797101020812988, 29.5, 22.0 ],
					"text" : "+~"
				}

			}
, 			{
				"box" : 				{
					"id" : "obj-107",
					"linecount" : 2,
					"maxclass" : "newobj",
					"numinlets" : 1,
					"numoutlets" : 1,
					"outlettype" : [ "signal" ],
					"patching_rect" : [ 1322.534994602203369, 1426.065395593643188, 101.0, 22.0 ],
					"text" : "receive~ #0mod1"
				}

			}
, 			{
				"box" : 				{
					"id" : "obj-109",
					"maxclass" : "newobj",
					"numinlets" : 2,
					"numoutlets" : 1,
					"outlettype" : [ "signal" ],
					"patching_rect" : [ 1284.730115652084351, 1456.553201198577881, 29.5, 22.0 ],
					"text" : "*~"
				}

			}
, 			{
				"box" : 				{
					"id" : "obj-99",
					"linecount" : 2,
					"maxclass" : "newobj",
					"numinlets" : 1,
					"numoutlets" : 0,
					"patching_rect" : [ 1582.738404035568237, 182.37967848777771, 88.0, 22.0 ],
					"text" : "send~ #0mod2"
				}

			}
, 			{
				"box" : 				{
					"id" : "obj-100",
					"maxclass" : "newobj",
					"numinlets" : 2,
					"numoutlets" : 1,
					"outlettype" : [ "signal" ],
					"patching_rect" : [ 1582.738404035568237, 131.452855587005615, 63.0, 22.0 ],
					"text" : "cycle~ 0.3"
				}

			}
, 			{
				"box" : 				{
					"id" : "obj-98",
					"maxclass" : "newobj",
					"numinlets" : 1,
					"numoutlets" : 1,
					"outlettype" : [ "signal" ],
					"patching_rect" : [ 542.31299614906311, 948.633486390113831, 59.0, 22.0 ],
					"text" : "tapout~ 3"
				}

			}
, 			{
				"box" : 				{
					"id" : "obj-97",
					"maxclass" : "newobj",
					"numinlets" : 1,
					"numoutlets" : 1,
					"outlettype" : [ "" ],
					"patching_rect" : [ 1253.452558279037476, 119.446795701980591, 137.0, 22.0 ],
					"text" : "if $f1 > 1 then 1 else $f1"
				}

			}
, 			{
				"box" : 				{
					"id" : "obj-92",
					"linecount" : 3,
					"maxclass" : "newobj",
					"numinlets" : 0,
					"numoutlets" : 1,
					"outlettype" : [ "" ],
					"patching_rect" : [ 788.264197111129761, 1533.897936344146729, 48.0, 22.0 ],
					"text" : "r #0dcy"
				}

			}
, 			{
				"box" : 				{
					"id" : "obj-93",
					"maxclass" : "newobj",
					"numinlets" : 2,
					"numoutlets" : 1,
					"outlettype" : [ "signal" ],
					"patching_rect" : [ 757.264197111129761, 1583.183650493621826, 29.5, 22.0 ],
					"text" : "*~"
				}

			}
, 			{
				"box" : 				{
					"id" : "obj-90",
					"linecount" : 3,
					"maxclass" : "newobj",
					"numinlets" : 0,
					"numoutlets" : 1,
					"outlettype" : [ "" ],
					"patching_rect" : [ 906.264197111129761, 948.633486390113831, 48.0, 22.0 ],
					"text" : "r #0dcy"
				}

			}
, 			{
				"box" : 				{
					"id" : "obj-91",
					"maxclass" : "newobj",
					"numinlets" : 2,
					"numoutlets" : 1,
					"outlettype" : [ "signal" ],
					"patching_rect" : [ 757.264197111129761, 983.633486390113831, 29.5, 22.0 ],
					"text" : "*~"
				}

			}
, 			{
				"box" : 				{
					"id" : "obj-84",
					"maxclass" : "newobj",
					"numinlets" : 2,
					"numoutlets" : 1,
					"outlettype" : [ "signal" ],
					"patching_rect" : [ 756.548632979393005, 2243.551088094711304, 29.5, 22.0 ],
					"text" : "-~"
				}

			}
, 			{
				"box" : 				{
					"id" : "obj-83",
					"maxclass" : "newobj",
					"numinlets" : 1,
					"numoutlets" : 1,
					"outlettype" : [ "" ],
					"patching_rect" : [ 873.908581376075745, 2165.659059882164001, 77.0, 22.0 ],
					"text" : "loadmess 40"
				}

			}
, 			{
				"box" : 				{
					"id" : "obj-82",
					"maxclass" : "newobj",
					"numinlets" : 2,
					"numoutlets" : 1,
					"outlettype" : [ "signal" ],
					"patching_rect" : [ 824.221117496490479, 2212.912766695022583, 69.0, 22.0 ],
					"text" : "butterworth"
				}

			}
, 			{
				"box" : 				{
					"id" : "obj-56",
					"linecount" : 3,
					"maxclass" : "newobj",
					"numinlets" : 0,
					"numoutlets" : 1,
					"outlettype" : [ "" ],
					"patching_rect" : [ 905.548632979393005, 1870.162415266036987, 48.0, 22.0 ],
					"text" : "r #0dcy"
				}

			}
, 			{
				"box" : 				{
					"id" : "obj-57",
					"maxclass" : "newobj",
					"numinlets" : 2,
					"numoutlets" : 1,
					"outlettype" : [ "signal" ],
					"patching_rect" : [ 756.548632979393005, 1905.162415266036987, 29.5, 22.0 ],
					"text" : "*~"
				}

			}
, 			{
				"box" : 				{
					"fontface" : 0,
					"fontname" : "Arial",
					"fontsize" : 12.0,
					"id" : "obj-215",
					"maxclass" : "number~",
					"mode" : 2,
					"numinlets" : 2,
					"numoutlets" : 2,
					"outlettype" : [ "signal", "float" ],
					"patching_rect" : [ 1087.233741521835327, 1370.252066135406494, 56.0, 22.0 ],
					"sig" : 0.0
				}

			}
, 			{
				"box" : 				{
					"id" : "obj-216",
					"maxclass" : "newobj",
					"numinlets" : 2,
					"numoutlets" : 1,
					"outlettype" : [ "signal" ],
					"patching_rect" : [ 1087.069107055664062, 1316.593528270721436, 29.5, 22.0 ],
					"text" : "+~"
				}

			}
, 			{
				"box" : 				{
					"id" : "obj-217",
					"linecount" : 2,
					"maxclass" : "newobj",
					"numinlets" : 1,
					"numoutlets" : 1,
					"outlettype" : [ "signal" ],
					"patching_rect" : [ 1157.800816059112549, 1212.563121557235718, 101.0, 22.0 ],
					"text" : "receive~ #0mod1"
				}

			}
, 			{
				"box" : 				{
					"id" : "obj-219",
					"maxclass" : "newobj",
					"numinlets" : 2,
					"numoutlets" : 1,
					"outlettype" : [ "signal" ],
					"patching_rect" : [ 1087.069107055664062, 1244.349628448486328, 29.5, 22.0 ],
					"text" : "*~"
				}

			}
, 			{
				"box" : 				{
					"id" : "obj-208",
					"maxclass" : "newobj",
					"numinlets" : 1,
					"numoutlets" : 1,
					"outlettype" : [ "signal" ],
					"patching_rect" : [ 978.784302711486816, 862.337654113769531, 31.0, 22.0 ],
					"text" : "sig~"
				}

			}
, 			{
				"box" : 				{
					"id" : "obj-206",
					"maxclass" : "newobj",
					"numinlets" : 1,
					"numoutlets" : 1,
					"outlettype" : [ "signal" ],
					"patching_rect" : [ 1011.253454923629761, 1143.31451427936554, 31.0, 22.0 ],
					"text" : "sig~"
				}

			}
, 			{
				"box" : 				{
					"id" : "obj-176",
					"linecount" : 2,
					"maxclass" : "newobj",
					"numinlets" : 1,
					"numoutlets" : 0,
					"patching_rect" : [ 1473.921217679977417, 182.37967848777771, 88.0, 22.0 ],
					"text" : "send~ #0mod1"
				}

			}
, 			{
				"box" : 				{
					"id" : "obj-175",
					"maxclass" : "newobj",
					"numinlets" : 2,
					"numoutlets" : 1,
					"outlettype" : [ "signal" ],
					"patching_rect" : [ 1473.921217679977417, 131.452855587005615, 63.0, 22.0 ],
					"text" : "cycle~ 0.2"
				}

			}
, 			{
				"box" : 				{
					"id" : "obj-168",
					"maxclass" : "newobj",
					"numinlets" : 2,
					"numoutlets" : 1,
					"outlettype" : [ "signal" ],
					"patching_rect" : [ 542.31299614906311, 1771.040431499481201, 29.5, 22.0 ],
					"text" : "+~"
				}

			}
, 			{
				"box" : 				{
					"id" : "obj-169",
					"maxclass" : "newobj",
					"numinlets" : 2,
					"numoutlets" : 1,
					"outlettype" : [ "signal" ],
					"patching_rect" : [ 542.31299614906311, 1548.183650493621826, 29.5, 22.0 ],
					"text" : "+~"
				}

			}
, 			{
				"box" : 				{
					"id" : "obj-170",
					"maxclass" : "newobj",
					"numinlets" : 2,
					"numoutlets" : 1,
					"outlettype" : [ "signal" ],
					"patching_rect" : [ 542.31299614906311, 1286.265730738639832, 29.5, 22.0 ],
					"text" : "+~"
				}

			}
, 			{
				"box" : 				{
					"id" : "obj-167",
					"maxclass" : "newobj",
					"numinlets" : 2,
					"numoutlets" : 1,
					"outlettype" : [ "signal" ],
					"patching_rect" : [ 366.337382555007935, 1771.040431499481201, 29.5, 22.0 ],
					"text" : "+~"
				}

			}
, 			{
				"box" : 				{
					"id" : "obj-166",
					"maxclass" : "newobj",
					"numinlets" : 2,
					"numoutlets" : 1,
					"outlettype" : [ "signal" ],
					"patching_rect" : [ 366.337382555007935, 1548.183650493621826, 29.5, 22.0 ],
					"text" : "+~"
				}

			}
, 			{
				"box" : 				{
					"id" : "obj-165",
					"maxclass" : "newobj",
					"numinlets" : 2,
					"numoutlets" : 1,
					"outlettype" : [ "signal" ],
					"patching_rect" : [ 366.337382555007935, 1286.265730738639832, 29.5, 22.0 ],
					"text" : "+~"
				}

			}
, 			{
				"box" : 				{
					"id" : "obj-115",
					"linecount" : 2,
					"maxclass" : "newobj",
					"numinlets" : 1,
					"numoutlets" : 1,
					"outlettype" : [ "signal" ],
					"patching_rect" : [ 666.749350070953369, 144.415252685546875, 120.0, 22.0 ],
					"text" : "receive~ #0feedback"
				}

			}
, 			{
				"box" : 				{
					"id" : "obj-116",
					"maxclass" : "newobj",
					"numinlets" : 2,
					"numoutlets" : 1,
					"outlettype" : [ "signal" ],
					"patching_rect" : [ 793.749350070953369, 189.936986923217773, 29.5, 22.0 ],
					"text" : "+~"
				}

			}
, 			{
				"box" : 				{
					"id" : "obj-117",
					"linecount" : 2,
					"maxclass" : "newobj",
					"numinlets" : 1,
					"numoutlets" : 0,
					"patching_rect" : [ 756.548632979393005, 2347.343479633331299, 107.0, 22.0 ],
					"text" : "send~ #0feedback"
				}

			}
, 			{
				"box" : 				{
					"id" : "obj-118",
					"linecount" : 3,
					"maxclass" : "newobj",
					"numinlets" : 0,
					"numoutlets" : 1,
					"outlettype" : [ "" ],
					"patching_rect" : [ 906.264197111129761, 1720.747740983963013, 48.0, 22.0 ],
					"text" : "r #0dcy"
				}

			}
, 			{
				"box" : 				{
					"id" : "obj-120",
					"linecount" : 3,
					"maxclass" : "newobj",
					"numinlets" : 0,
					"numoutlets" : 1,
					"outlettype" : [ "" ],
					"patching_rect" : [ 906.264197111129761, 1231.290120720863342, 48.0, 22.0 ],
					"text" : "r #0dcy"
				}

			}
, 			{
				"box" : 				{
					"id" : "obj-122",
					"maxclass" : "newobj",
					"numinlets" : 2,
					"numoutlets" : 1,
					"outlettype" : [ "signal" ],
					"patching_rect" : [ 757.264197111129761, 1755.747740983963013, 29.5, 22.0 ],
					"text" : "*~"
				}

			}
, 			{
				"box" : 				{
					"id" : "obj-123",
					"maxclass" : "newobj",
					"numinlets" : 1,
					"numoutlets" : 1,
					"outlettype" : [ "signal" ],
					"patching_rect" : [ 757.264197111129761, 1720.747740983963013, 59.0, 22.0 ],
					"text" : "tapout~ 2"
				}

			}
, 			{
				"box" : 				{
					"id" : "obj-124",
					"maxclass" : "newobj",
					"numinlets" : 1,
					"numoutlets" : 1,
					"outlettype" : [ "signal" ],
					"patching_rect" : [ 584.361758232116699, 1720.747740983963013, 59.0, 22.0 ],
					"text" : "tapout~ 3"
				}

			}
, 			{
				"box" : 				{
					"id" : "obj-125",
					"maxclass" : "newobj",
					"numinlets" : 1,
					"numoutlets" : 1,
					"outlettype" : [ "signal" ],
					"patching_rect" : [ 398.581263303756714, 1720.747740983963013, 59.0, 22.0 ],
					"text" : "tapout~ 2"
				}

			}
, 			{
				"box" : 				{
					"id" : "obj-126",
					"maxclass" : "newobj",
					"numinlets" : 1,
					"numoutlets" : 1,
					"outlettype" : [ "tapconnect" ],
					"patching_rect" : [ 757.264197111129761, 1688.747740983963013, 52.0, 22.0 ],
					"text" : "tapin~ 3"
				}

			}
, 			{
				"box" : 				{
					"id" : "obj-128",
					"maxclass" : "newobj",
					"numinlets" : 1,
					"numoutlets" : 1,
					"outlettype" : [ "signal" ],
					"patching_rect" : [ 757.264197111129761, 1495.3299880027771, 59.0, 22.0 ],
					"text" : "tapout~ 2"
				}

			}
, 			{
				"box" : 				{
					"id" : "obj-129",
					"maxclass" : "newobj",
					"numinlets" : 1,
					"numoutlets" : 1,
					"outlettype" : [ "signal" ],
					"patching_rect" : [ 584.361758232116699, 1495.3299880027771, 59.0, 22.0 ],
					"text" : "tapout~ 2"
				}

			}
, 			{
				"box" : 				{
					"id" : "obj-130",
					"maxclass" : "newobj",
					"numinlets" : 1,
					"numoutlets" : 1,
					"outlettype" : [ "signal" ],
					"patching_rect" : [ 398.581263303756714, 1495.3299880027771, 59.0, 22.0 ],
					"text" : "tapout~ 3"
				}

			}
, 			{
				"box" : 				{
					"id" : "obj-131",
					"maxclass" : "newobj",
					"numinlets" : 1,
					"numoutlets" : 1,
					"outlettype" : [ "tapconnect" ],
					"patching_rect" : [ 757.264197111129761, 1463.3299880027771, 52.0, 22.0 ],
					"text" : "tapin~ 3"
				}

			}
, 			{
				"box" : 				{
					"id" : "obj-132",
					"maxclass" : "newobj",
					"numinlets" : 2,
					"numoutlets" : 1,
					"outlettype" : [ "signal" ],
					"patching_rect" : [ 757.264197111129761, 1266.290120720863342, 29.5, 22.0 ],
					"text" : "*~"
				}

			}
, 			{
				"box" : 				{
					"id" : "obj-133",
					"maxclass" : "newobj",
					"numinlets" : 1,
					"numoutlets" : 1,
					"outlettype" : [ "signal" ],
					"patching_rect" : [ 757.264197111129761, 1231.290120720863342, 59.0, 22.0 ],
					"text" : "tapout~ 2"
				}

			}
, 			{
				"box" : 				{
					"id" : "obj-134",
					"maxclass" : "newobj",
					"numinlets" : 1,
					"numoutlets" : 1,
					"outlettype" : [ "signal" ],
					"patching_rect" : [ 584.361758232116699, 1231.290120720863342, 59.0, 22.0 ],
					"text" : "tapout~ 3"
				}

			}
, 			{
				"box" : 				{
					"id" : "obj-135",
					"maxclass" : "newobj",
					"numinlets" : 1,
					"numoutlets" : 1,
					"outlettype" : [ "signal" ],
					"patching_rect" : [ 398.581263303756714, 1231.290120720863342, 59.0, 22.0 ],
					"text" : "tapout~ 2"
				}

			}
, 			{
				"box" : 				{
					"id" : "obj-136",
					"maxclass" : "newobj",
					"numinlets" : 1,
					"numoutlets" : 1,
					"outlettype" : [ "tapconnect" ],
					"patching_rect" : [ 757.264197111129761, 1199.290120720863342, 52.0, 22.0 ],
					"text" : "tapin~ 3"
				}

			}
, 			{
				"box" : 				{
					"id" : "obj-138",
					"maxclass" : "newobj",
					"numinlets" : 1,
					"numoutlets" : 1,
					"outlettype" : [ "signal" ],
					"patching_rect" : [ 757.264197111129761, 947.120634317398071, 59.0, 22.0 ],
					"text" : "tapout~ 2"
				}

			}
, 			{
				"box" : 				{
					"id" : "obj-141",
					"maxclass" : "newobj",
					"numinlets" : 1,
					"numoutlets" : 1,
					"outlettype" : [ "tapconnect" ],
					"patching_rect" : [ 757.264197111129761, 915.120634317398071, 52.0, 22.0 ],
					"text" : "tapin~ 3"
				}

			}
, 			{
				"box" : 				{
					"id" : "obj-143",
					"maxclass" : "newobj",
					"numinlets" : 3,
					"numoutlets" : 1,
					"outlettype" : [ "signal" ],
					"patching_rect" : [ 757.264197111129761, 1654.747740983963013, 79.0, 22.0 ],
					"text" : "schroederapf"
				}

			}
, 			{
				"box" : 				{
					"id" : "obj-145",
					"maxclass" : "newobj",
					"numinlets" : 3,
					"numoutlets" : 1,
					"outlettype" : [ "signal" ],
					"patching_rect" : [ 757.264197111129761, 1615.747740983963013, 79.0, 22.0 ],
					"text" : "schroederapf"
				}

			}
, 			{
				"box" : 				{
					"id" : "obj-147",
					"maxclass" : "newobj",
					"numinlets" : 3,
					"numoutlets" : 1,
					"outlettype" : [ "signal" ],
					"patching_rect" : [ 757.264197111129761, 1431.3299880027771, 79.0, 22.0 ],
					"text" : "schroederapf"
				}

			}
, 			{
				"box" : 				{
					"id" : "obj-149",
					"maxclass" : "newobj",
					"numinlets" : 3,
					"numoutlets" : 1,
					"outlettype" : [ "signal" ],
					"patching_rect" : [ 757.264197111129761, 1392.3299880027771, 79.0, 22.0 ],
					"text" : "schroederapf"
				}

			}
, 			{
				"box" : 				{
					"id" : "obj-151",
					"maxclass" : "newobj",
					"numinlets" : 3,
					"numoutlets" : 1,
					"outlettype" : [ "signal" ],
					"patching_rect" : [ 757.264197111129761, 1165.290120720863342, 79.0, 22.0 ],
					"text" : "schroederapf"
				}

			}
, 			{
				"box" : 				{
					"id" : "obj-153",
					"maxclass" : "newobj",
					"numinlets" : 3,
					"numoutlets" : 1,
					"outlettype" : [ "signal" ],
					"patching_rect" : [ 757.264197111129761, 1126.290120720863342, 79.0, 22.0 ],
					"text" : "schroederapf"
				}

			}
, 			{
				"box" : 				{
					"id" : "obj-155",
					"maxclass" : "newobj",
					"numinlets" : 3,
					"numoutlets" : 1,
					"outlettype" : [ "signal" ],
					"patching_rect" : [ 757.264197111129761, 880.120634317398071, 79.0, 22.0 ],
					"text" : "schroederapf"
				}

			}
, 			{
				"box" : 				{
					"id" : "obj-157",
					"maxclass" : "newobj",
					"numinlets" : 3,
					"numoutlets" : 1,
					"outlettype" : [ "signal" ],
					"patching_rect" : [ 757.264197111129761, 841.120634317398071, 79.0, 22.0 ],
					"text" : "schroederapf"
				}

			}
, 			{
				"box" : 				{
					"format" : 6,
					"id" : "obj-74",
					"maxclass" : "flonum",
					"numinlets" : 1,
					"numoutlets" : 2,
					"outlettype" : [ "", "bang" ],
					"parameter_enable" : 0,
					"patching_rect" : [ 1253.452558279037476, 182.37967848777771, 101.0, 22.0 ]
				}

			}
, 			{
				"box" : 				{
					"id" : "obj-73",
					"linecount" : 3,
					"maxclass" : "newobj",
					"numinlets" : 1,
					"numoutlets" : 0,
					"patching_rect" : [ 1253.452558279037476, 222.492371559143066, 50.0, 22.0 ],
					"text" : "s #0dcy"
				}

			}
, 			{
				"box" : 				{
					"comment" : "",
					"id" : "obj-10",
					"index" : 2,
					"maxclass" : "outlet",
					"numinlets" : 1,
					"numoutlets" : 0,
					"patching_rect" : [ 541.597432017326355, 2115.290640950202942, 30.0, 30.0 ]
				}

			}
, 			{
				"box" : 				{
					"comment" : "",
					"id" : "obj-8",
					"index" : 1,
					"maxclass" : "outlet",
					"numinlets" : 1,
					"numoutlets" : 0,
					"patching_rect" : [ 344.621818423271179, 2115.290640950202942, 30.0, 30.0 ]
				}

			}
, 			{
				"box" : 				{
					"comment" : "(sig~): Audio in L",
					"id" : "obj-2",
					"ignoreclick" : 1,
					"index" : 1,
					"maxclass" : "inlet",
					"numinlets" : 0,
					"numoutlets" : 1,
					"outlettype" : [ "signal" ],
					"patching_rect" : [ 757.264197111129761, 38.716582059860229, 30.0, 30.0 ]
				}

			}
 ],
		"lines" : [ 			{
				"patchline" : 				{
					"destination" : [ "obj-31", 0 ],
					"source" : [ "obj-1", 0 ]
				}

			}
, 			{
				"patchline" : 				{
					"destination" : [ "obj-99", 0 ],
					"midpoints" : [ 1592.238404035568237, 156.0, 1592.238404035568237, 156.0 ],
					"source" : [ "obj-100", 0 ]
				}

			}
, 			{
				"patchline" : 				{
					"destination" : [ "obj-102", 0 ],
					"midpoints" : [ 1294.230115652084351, 1551.0, 1294.394750118255615, 1551.0 ],
					"order" : 0,
					"source" : [ "obj-103", 0 ]
				}

			}
, 			{
				"patchline" : 				{
					"destination" : [ "obj-145", 1 ],
					"midpoints" : [ 1294.230115652084351, 1569.0, 798.0, 1569.0, 798.0, 1611.0, 796.764197111129761, 1611.0 ],
					"order" : 1,
					"source" : [ "obj-103", 0 ]
				}

			}
, 			{
				"patchline" : 				{
					"destination" : [ "obj-109", 1 ],
					"midpoints" : [ 1332.034994602203369, 1449.0, 1304.730115652084351, 1449.0 ],
					"source" : [ "obj-107", 0 ]
				}

			}
, 			{
				"patchline" : 				{
					"destination" : [ "obj-103", 0 ],
					"midpoints" : [ 1294.230115652084351, 1479.0, 1294.230115652084351, 1479.0 ],
					"source" : [ "obj-109", 0 ]
				}

			}
, 			{
				"patchline" : 				{
					"destination" : [ "obj-34", 0 ],
					"source" : [ "obj-11", 0 ]
				}

			}
, 			{
				"patchline" : 				{
					"destination" : [ "obj-111", 0 ],
					"midpoints" : [ 1294.619946002960205, 1080.0, 1294.78458046913147, 1080.0 ],
					"order" : 0,
					"source" : [ "obj-112", 0 ]
				}

			}
, 			{
				"patchline" : 				{
					"destination" : [ "obj-153", 1 ],
					"midpoints" : [ 1294.619946002960205, 1080.0, 796.764197111129761, 1080.0 ],
					"order" : 1,
					"source" : [ "obj-112", 0 ]
				}

			}
, 			{
				"patchline" : 				{
					"destination" : [ "obj-119", 1 ],
					"midpoints" : [ 1332.424824953079224, 978.0, 1305.119946002960205, 978.0 ],
					"source" : [ "obj-113", 0 ]
				}

			}
, 			{
				"patchline" : 				{
					"destination" : [ "obj-116", 0 ],
					"midpoints" : [ 676.249350070953369, 183.0, 803.249350070953369, 183.0 ],
					"source" : [ "obj-115", 0 ]
				}

			}
, 			{
				"patchline" : 				{
					"destination" : [ "obj-211", 0 ],
					"midpoints" : [ 803.249350070953369, 213.0, 803.249350070953369, 213.0 ],
					"source" : [ "obj-116", 0 ]
				}

			}
, 			{
				"patchline" : 				{
					"destination" : [ "obj-122", 1 ],
					"midpoints" : [ 915.764197111129761, 1752.0, 777.264197111129761, 1752.0 ],
					"source" : [ "obj-118", 0 ]
				}

			}
, 			{
				"patchline" : 				{
					"destination" : [ "obj-112", 0 ],
					"midpoints" : [ 1294.619946002960205, 1008.0, 1294.619946002960205, 1008.0 ],
					"source" : [ "obj-119", 0 ]
				}

			}
, 			{
				"patchline" : 				{
					"destination" : [ "obj-132", 1 ],
					"midpoints" : [ 915.764197111129761, 1263.0, 777.264197111129761, 1263.0 ],
					"source" : [ "obj-120", 0 ]
				}

			}
, 			{
				"patchline" : 				{
					"destination" : [ "obj-57", 0 ],
					"source" : [ "obj-122", 0 ]
				}

			}
, 			{
				"patchline" : 				{
					"destination" : [ "obj-122", 0 ],
					"midpoints" : [ 766.764197111129761, 1743.0, 766.764197111129761, 1743.0 ],
					"source" : [ "obj-123", 0 ]
				}

			}
, 			{
				"patchline" : 				{
					"destination" : [ "obj-168", 1 ],
					"midpoints" : [ 593.861758232116699, 1758.0, 562.31299614906311, 1758.0 ],
					"source" : [ "obj-124", 0 ]
				}

			}
, 			{
				"patchline" : 				{
					"destination" : [ "obj-167", 1 ],
					"midpoints" : [ 408.081263303756714, 1758.0, 386.337382555007935, 1758.0 ],
					"source" : [ "obj-125", 0 ]
				}

			}
, 			{
				"patchline" : 				{
					"destination" : [ "obj-123", 0 ],
					"midpoints" : [ 766.764197111129761, 1713.0, 766.764197111129761, 1713.0 ],
					"order" : 0,
					"source" : [ "obj-126", 0 ]
				}

			}
, 			{
				"patchline" : 				{
					"destination" : [ "obj-124", 0 ],
					"midpoints" : [ 766.764197111129761, 1713.0, 654.0, 1713.0, 654.0, 1707.0, 593.861758232116699, 1707.0 ],
					"order" : 1,
					"source" : [ "obj-126", 0 ]
				}

			}
, 			{
				"patchline" : 				{
					"destination" : [ "obj-125", 0 ],
					"midpoints" : [ 766.764197111129761, 1713.0, 654.0, 1713.0, 654.0, 1707.0, 408.081263303756714, 1707.0 ],
					"order" : 2,
					"source" : [ "obj-126", 0 ]
				}

			}
, 			{
				"patchline" : 				{
					"destination" : [ "obj-93", 0 ],
					"midpoints" : [ 766.764197111129761, 1518.0, 766.764197111129761, 1518.0 ],
					"source" : [ "obj-128", 0 ]
				}

			}
, 			{
				"patchline" : 				{
					"destination" : [ "obj-169", 1 ],
					"midpoints" : [ 593.861758232116699, 1533.0, 562.31299614906311, 1533.0 ],
					"source" : [ "obj-129", 0 ]
				}

			}
, 			{
				"patchline" : 				{
					"destination" : [ "obj-8", 0 ],
					"source" : [ "obj-13", 0 ]
				}

			}
, 			{
				"patchline" : 				{
					"destination" : [ "obj-166", 1 ],
					"midpoints" : [ 408.081263303756714, 1533.0, 386.337382555007935, 1533.0 ],
					"source" : [ "obj-130", 0 ]
				}

			}
, 			{
				"patchline" : 				{
					"destination" : [ "obj-128", 0 ],
					"midpoints" : [ 766.764197111129761, 1488.0, 766.764197111129761, 1488.0 ],
					"order" : 0,
					"source" : [ "obj-131", 0 ]
				}

			}
, 			{
				"patchline" : 				{
					"destination" : [ "obj-129", 0 ],
					"midpoints" : [ 766.764197111129761, 1488.0, 654.0, 1488.0, 654.0, 1482.0, 593.861758232116699, 1482.0 ],
					"order" : 1,
					"source" : [ "obj-131", 0 ]
				}

			}
, 			{
				"patchline" : 				{
					"destination" : [ "obj-130", 0 ],
					"midpoints" : [ 766.764197111129761, 1488.0, 654.0, 1488.0, 654.0, 1482.0, 408.081263303756714, 1482.0 ],
					"order" : 2,
					"source" : [ "obj-131", 0 ]
				}

			}
, 			{
				"patchline" : 				{
					"destination" : [ "obj-149", 0 ],
					"midpoints" : [ 766.764197111129761, 1290.0, 766.764197111129761, 1290.0 ],
					"source" : [ "obj-132", 0 ]
				}

			}
, 			{
				"patchline" : 				{
					"destination" : [ "obj-132", 0 ],
					"midpoints" : [ 766.764197111129761, 1254.0, 766.764197111129761, 1254.0 ],
					"source" : [ "obj-133", 0 ]
				}

			}
, 			{
				"patchline" : 				{
					"destination" : [ "obj-170", 1 ],
					"midpoints" : [ 593.861758232116699, 1272.0, 562.31299614906311, 1272.0 ],
					"source" : [ "obj-134", 0 ]
				}

			}
, 			{
				"patchline" : 				{
					"destination" : [ "obj-165", 1 ],
					"midpoints" : [ 408.081263303756714, 1272.0, 386.337382555007935, 1272.0 ],
					"source" : [ "obj-135", 0 ]
				}

			}
, 			{
				"patchline" : 				{
					"destination" : [ "obj-133", 0 ],
					"midpoints" : [ 766.764197111129761, 1224.0, 766.764197111129761, 1224.0 ],
					"order" : 0,
					"source" : [ "obj-136", 0 ]
				}

			}
, 			{
				"patchline" : 				{
					"destination" : [ "obj-134", 0 ],
					"midpoints" : [ 766.764197111129761, 1224.0, 654.0, 1224.0, 654.0, 1218.0, 593.861758232116699, 1218.0 ],
					"order" : 1,
					"source" : [ "obj-136", 0 ]
				}

			}
, 			{
				"patchline" : 				{
					"destination" : [ "obj-135", 0 ],
					"midpoints" : [ 766.764197111129761, 1224.0, 654.0, 1224.0, 654.0, 1218.0, 408.081263303756714, 1218.0 ],
					"order" : 2,
					"source" : [ "obj-136", 0 ]
				}

			}
, 			{
				"patchline" : 				{
					"destination" : [ "obj-91", 0 ],
					"midpoints" : [ 766.764197111129761, 972.0, 766.764197111129761, 972.0 ],
					"source" : [ "obj-138", 0 ]
				}

			}
, 			{
				"patchline" : 				{
					"destination" : [ "obj-10", 0 ],
					"source" : [ "obj-14", 0 ]
				}

			}
, 			{
				"patchline" : 				{
					"destination" : [ "obj-138", 0 ],
					"midpoints" : [ 766.764197111129761, 939.0, 766.764197111129761, 939.0 ],
					"order" : 0,
					"source" : [ "obj-141", 0 ]
				}

			}
, 			{
				"patchline" : 				{
					"destination" : [ "obj-98", 0 ],
					"midpoints" : [ 766.764197111129761, 939.0, 612.0, 939.0, 612.0, 933.0, 551.81299614906311, 933.0 ],
					"order" : 1,
					"source" : [ "obj-141", 0 ]
				}

			}
, 			{
				"patchline" : 				{
					"destination" : [ "obj-126", 0 ],
					"midpoints" : [ 766.764197111129761, 1677.0, 766.764197111129761, 1677.0 ],
					"source" : [ "obj-143", 0 ]
				}

			}
, 			{
				"patchline" : 				{
					"destination" : [ "obj-143", 0 ],
					"midpoints" : [ 766.764197111129761, 1638.0, 766.764197111129761, 1638.0 ],
					"source" : [ "obj-145", 0 ]
				}

			}
, 			{
				"patchline" : 				{
					"destination" : [ "obj-131", 0 ],
					"midpoints" : [ 766.764197111129761, 1455.0, 766.764197111129761, 1455.0 ],
					"source" : [ "obj-147", 0 ]
				}

			}
, 			{
				"patchline" : 				{
					"destination" : [ "obj-147", 0 ],
					"midpoints" : [ 766.764197111129761, 1416.0, 766.764197111129761, 1416.0 ],
					"source" : [ "obj-149", 0 ]
				}

			}
, 			{
				"patchline" : 				{
					"destination" : [ "obj-16", 0 ],
					"source" : [ "obj-15", 0 ]
				}

			}
, 			{
				"patchline" : 				{
					"destination" : [ "obj-136", 0 ],
					"midpoints" : [ 766.764197111129761, 1188.0, 766.764197111129761, 1188.0 ],
					"source" : [ "obj-151", 0 ]
				}

			}
, 			{
				"patchline" : 				{
					"destination" : [ "obj-151", 0 ],
					"midpoints" : [ 766.764197111129761, 1149.0, 766.764197111129761, 1149.0 ],
					"source" : [ "obj-153", 0 ]
				}

			}
, 			{
				"patchline" : 				{
					"destination" : [ "obj-141", 0 ],
					"midpoints" : [ 766.764197111129761, 903.0, 766.764197111129761, 903.0 ],
					"order" : 0,
					"source" : [ "obj-155", 0 ]
				}

			}
, 			{
				"patchline" : 				{
					"destination" : [ "obj-165", 0 ],
					"midpoints" : [ 766.764197111129761, 903.0, 375.837382555007935, 903.0 ],
					"order" : 1,
					"source" : [ "obj-155", 0 ]
				}

			}
, 			{
				"patchline" : 				{
					"destination" : [ "obj-155", 0 ],
					"midpoints" : [ 766.764197111129761, 864.0, 766.764197111129761, 864.0 ],
					"source" : [ "obj-157", 0 ]
				}

			}
, 			{
				"patchline" : 				{
					"destination" : [ "obj-13", 0 ],
					"source" : [ "obj-16", 0 ]
				}

			}
, 			{
				"patchline" : 				{
					"destination" : [ "obj-162", 0 ],
					"midpoints" : [ 803.249350070953369, 360.0, 636.398938179016113, 360.0 ],
					"order" : 4,
					"source" : [ "obj-160", 0 ]
				}

			}
, 			{
				"patchline" : 				{
					"destination" : [ "obj-163", 0 ],
					"midpoints" : [ 803.249350070953369, 360.0, 765.0, 360.0, 765.0, 447.0, 719.39571738243103, 447.0 ],
					"order" : 3,
					"source" : [ "obj-160", 0 ]
				}

			}
, 			{
				"patchline" : 				{
					"destination" : [ "obj-164", 0 ],
					"midpoints" : [ 803.249350070953369, 360.0, 771.0, 360.0, 771.0, 441.0, 794.1505126953125, 441.0 ],
					"order" : 2,
					"source" : [ "obj-160", 0 ]
				}

			}
, 			{
				"patchline" : 				{
					"destination" : [ "obj-171", 0 ],
					"midpoints" : [ 803.249350070953369, 360.0, 858.0, 360.0, 858.0, 450.0, 874.422187089920044, 450.0 ],
					"order" : 1,
					"source" : [ "obj-160", 0 ]
				}

			}
, 			{
				"patchline" : 				{
					"destination" : [ "obj-172", 0 ],
					"midpoints" : [ 803.249350070953369, 360.0, 930.0, 360.0, 930.0, 441.0, 954.76639461517334, 441.0 ],
					"order" : 0,
					"source" : [ "obj-160", 0 ]
				}

			}
, 			{
				"patchline" : 				{
					"destination" : [ "obj-173", 0 ],
					"midpoints" : [ 636.398938179016113, 594.0, 766.764197111129761, 594.0 ],
					"source" : [ "obj-162", 0 ]
				}

			}
, 			{
				"patchline" : 				{
					"destination" : [ "obj-173", 0 ],
					"midpoints" : [ 719.39571738243103, 594.0, 766.764197111129761, 594.0 ],
					"source" : [ "obj-163", 0 ]
				}

			}
, 			{
				"patchline" : 				{
					"destination" : [ "obj-173", 0 ],
					"midpoints" : [ 794.1505126953125, 594.0, 766.764197111129761, 594.0 ],
					"source" : [ "obj-164", 0 ]
				}

			}
, 			{
				"patchline" : 				{
					"destination" : [ "obj-166", 0 ],
					"midpoints" : [ 375.837382555007935, 1311.0, 375.837382555007935, 1311.0 ],
					"source" : [ "obj-165", 0 ]
				}

			}
, 			{
				"patchline" : 				{
					"destination" : [ "obj-167", 0 ],
					"midpoints" : [ 375.837382555007935, 1572.0, 375.837382555007935, 1572.0 ],
					"source" : [ "obj-166", 0 ]
				}

			}
, 			{
				"patchline" : 				{
					"destination" : [ "obj-19", 1 ],
					"source" : [ "obj-167", 0 ]
				}

			}
, 			{
				"patchline" : 				{
					"destination" : [ "obj-18", 0 ],
					"source" : [ "obj-168", 0 ]
				}

			}
, 			{
				"patchline" : 				{
					"destination" : [ "obj-168", 0 ],
					"midpoints" : [ 551.81299614906311, 1572.0, 551.81299614906311, 1572.0 ],
					"source" : [ "obj-169", 0 ]
				}

			}
, 			{
				"patchline" : 				{
					"destination" : [ "obj-16", 1 ],
					"source" : [ "obj-17", 0 ]
				}

			}
, 			{
				"patchline" : 				{
					"destination" : [ "obj-169", 0 ],
					"midpoints" : [ 551.81299614906311, 1311.0, 551.81299614906311, 1311.0 ],
					"source" : [ "obj-170", 0 ]
				}

			}
, 			{
				"patchline" : 				{
					"destination" : [ "obj-173", 0 ],
					"midpoints" : [ 874.422187089920044, 594.0, 766.764197111129761, 594.0 ],
					"source" : [ "obj-171", 0 ]
				}

			}
, 			{
				"patchline" : 				{
					"destination" : [ "obj-173", 0 ],
					"midpoints" : [ 954.76639461517334, 594.0, 766.764197111129761, 594.0 ],
					"source" : [ "obj-172", 0 ]
				}

			}
, 			{
				"patchline" : 				{
					"destination" : [ "obj-157", 0 ],
					"midpoints" : [ 766.764197111129761, 633.0, 766.764197111129761, 633.0 ],
					"source" : [ "obj-173", 0 ]
				}

			}
, 			{
				"patchline" : 				{
					"destination" : [ "obj-180", 1 ],
					"midpoints" : [ 1080.583003997802734, 327.0, 1083.0, 327.0, 1083.0, 366.0, 1080.583003997802734, 366.0 ],
					"source" : [ "obj-174", 0 ]
				}

			}
, 			{
				"patchline" : 				{
					"destination" : [ "obj-176", 0 ],
					"midpoints" : [ 1483.421217679977417, 156.0, 1483.421217679977417, 156.0 ],
					"source" : [ "obj-175", 0 ]
				}

			}
, 			{
				"patchline" : 				{
					"destination" : [ "obj-163", 0 ],
					"midpoints" : [ 719.39571738243103, 444.0, 719.39571738243103, 444.0 ],
					"source" : [ "obj-177", 0 ]
				}

			}
, 			{
				"patchline" : 				{
					"destination" : [ "obj-171", 0 ],
					"midpoints" : [ 881.269503831863403, 441.0, 874.422187089920044, 441.0 ],
					"source" : [ "obj-178", 0 ]
				}

			}
, 			{
				"patchline" : 				{
					"destination" : [ "obj-14", 0 ],
					"source" : [ "obj-18", 0 ]
				}

			}
, 			{
				"patchline" : 				{
					"destination" : [ "obj-177", 1 ],
					"midpoints" : [ 1062.583003997802734, 405.0, 746.39571738243103, 405.0 ],
					"order" : 1,
					"source" : [ "obj-180", 0 ]
				}

			}
, 			{
				"patchline" : 				{
					"destination" : [ "obj-178", 1 ],
					"midpoints" : [ 1062.583003997802734, 411.0, 908.269503831863403, 411.0 ],
					"order" : 0,
					"source" : [ "obj-180", 0 ]
				}

			}
, 			{
				"patchline" : 				{
					"destination" : [ "obj-13", 1 ],
					"source" : [ "obj-19", 0 ]
				}

			}
, 			{
				"patchline" : 				{
					"destination" : [ "obj-177", 0 ],
					"midpoints" : [ 719.39571738243103, 396.0, 719.39571738243103, 396.0 ],
					"source" : [ "obj-199", 0 ]
				}

			}
, 			{
				"patchline" : 				{
					"destination" : [ "obj-23", 0 ],
					"order" : 0,
					"source" : [ "obj-2", 0 ]
				}

			}
, 			{
				"patchline" : 				{
					"destination" : [ "obj-9", 0 ],
					"order" : 1,
					"source" : [ "obj-2", 0 ]
				}

			}
, 			{
				"patchline" : 				{
					"destination" : [ "obj-19", 0 ],
					"source" : [ "obj-20", 0 ]
				}

			}
, 			{
				"patchline" : 				{
					"destination" : [ "obj-164", 0 ],
					"midpoints" : [ 794.1505126953125, 396.0, 794.1505126953125, 396.0 ],
					"source" : [ "obj-201", 0 ]
				}

			}
, 			{
				"patchline" : 				{
					"destination" : [ "obj-178", 0 ],
					"midpoints" : [ 881.269503831863403, 396.0, 881.269503831863403, 396.0 ],
					"source" : [ "obj-202", 0 ]
				}

			}
, 			{
				"patchline" : 				{
					"destination" : [ "obj-172", 0 ],
					"midpoints" : [ 954.76639461517334, 396.0, 954.76639461517334, 396.0 ],
					"source" : [ "obj-205", 0 ]
				}

			}
, 			{
				"patchline" : 				{
					"destination" : [ "obj-151", 1 ],
					"midpoints" : [ 1020.753454923629761, 1176.0, 846.0, 1176.0, 846.0, 1161.0, 796.764197111129761, 1161.0 ],
					"source" : [ "obj-206", 0 ]
				}

			}
, 			{
				"patchline" : 				{
					"destination" : [ "obj-180", 0 ],
					"midpoints" : [ 1062.583003997802734, 354.0, 1062.583003997802734, 354.0 ],
					"source" : [ "obj-207", 0 ]
				}

			}
, 			{
				"patchline" : 				{
					"destination" : [ "obj-155", 1 ],
					"midpoints" : [ 988.284302711486816, 885.0, 846.0, 885.0, 846.0, 876.0, 796.764197111129761, 876.0 ],
					"source" : [ "obj-208", 0 ]
				}

			}
, 			{
				"patchline" : 				{
					"destination" : [ "obj-223", 0 ],
					"midpoints" : [ 656.200073719024658, 276.0, 656.308433532714844, 276.0 ],
					"source" : [ "obj-209", 0 ]
				}

			}
, 			{
				"patchline" : 				{
					"destination" : [ "obj-18", 1 ],
					"source" : [ "obj-21", 0 ]
				}

			}
, 			{
				"patchline" : 				{
					"destination" : [ "obj-160", 0 ],
					"midpoints" : [ 803.249350070953369, 276.0, 803.249350070953369, 276.0 ],
					"source" : [ "obj-211", 0 ]
				}

			}
, 			{
				"patchline" : 				{
					"destination" : [ "obj-220", 0 ],
					"midpoints" : [ 894.421483397483826, 168.0, 894.421483397483826, 168.0 ],
					"source" : [ "obj-212", 0 ]
				}

			}
, 			{
				"patchline" : 				{
					"destination" : [ "obj-149", 1 ],
					"midpoints" : [ 1096.569107055664062, 1353.0, 796.764197111129761, 1353.0 ],
					"order" : 1,
					"source" : [ "obj-216", 0 ]
				}

			}
, 			{
				"patchline" : 				{
					"destination" : [ "obj-215", 0 ],
					"midpoints" : [ 1096.569107055664062, 1341.0, 1096.733741521835327, 1341.0 ],
					"order" : 0,
					"source" : [ "obj-216", 0 ]
				}

			}
, 			{
				"patchline" : 				{
					"destination" : [ "obj-219", 1 ],
					"midpoints" : [ 1167.300816059112549, 1236.0, 1107.069107055664062, 1236.0 ],
					"source" : [ "obj-217", 0 ]
				}

			}
, 			{
				"patchline" : 				{
					"destination" : [ "obj-216", 0 ],
					"midpoints" : [ 1096.569107055664062, 1269.0, 1096.569107055664062, 1269.0 ],
					"source" : [ "obj-219", 0 ]
				}

			}
, 			{
				"patchline" : 				{
					"destination" : [ "obj-23", 1 ],
					"order" : 1,
					"source" : [ "obj-22", 0 ]
				}

			}
, 			{
				"patchline" : 				{
					"destination" : [ "obj-3", 0 ],
					"order" : 0,
					"source" : [ "obj-22", 0 ]
				}

			}
, 			{
				"patchline" : 				{
					"destination" : [ "obj-211", 1 ],
					"midpoints" : [ 894.421483397483826, 237.0, 879.249350070953369, 237.0 ],
					"source" : [ "obj-220", 0 ]
				}

			}
, 			{
				"patchline" : 				{
					"destination" : [ "obj-162", 0 ],
					"midpoints" : [ 656.308433532714844, 441.0, 636.398938179016113, 441.0 ],
					"order" : 5,
					"source" : [ "obj-223", 0 ]
				}

			}
, 			{
				"patchline" : 				{
					"destination" : [ "obj-199", 0 ],
					"midpoints" : [ 656.308433532714844, 360.0, 719.39571738243103, 360.0 ],
					"order" : 4,
					"source" : [ "obj-223", 0 ]
				}

			}
, 			{
				"patchline" : 				{
					"destination" : [ "obj-201", 0 ],
					"midpoints" : [ 656.308433532714844, 360.0, 794.1505126953125, 360.0 ],
					"order" : 3,
					"source" : [ "obj-223", 0 ]
				}

			}
, 			{
				"patchline" : 				{
					"destination" : [ "obj-202", 0 ],
					"midpoints" : [ 656.308433532714844, 360.0, 881.269503831863403, 360.0 ],
					"order" : 2,
					"source" : [ "obj-223", 0 ]
				}

			}
, 			{
				"patchline" : 				{
					"destination" : [ "obj-205", 0 ],
					"midpoints" : [ 656.308433532714844, 360.0, 954.76639461517334, 360.0 ],
					"order" : 1,
					"source" : [ "obj-223", 0 ]
				}

			}
, 			{
				"patchline" : 				{
					"destination" : [ "obj-207", 0 ],
					"midpoints" : [ 656.308433532714844, 336.0, 1038.0, 336.0, 1038.0, 324.0, 1062.583003997802734, 324.0 ],
					"order" : 0,
					"source" : [ "obj-223", 0 ]
				}

			}
, 			{
				"patchline" : 				{
					"destination" : [ "obj-209", 0 ],
					"midpoints" : [ 656.200073719024658, 234.0, 656.200073719024658, 234.0 ],
					"source" : [ "obj-228", 0 ]
				}

			}
, 			{
				"patchline" : 				{
					"destination" : [ "obj-97", 0 ],
					"source" : [ "obj-229", 0 ]
				}

			}
, 			{
				"patchline" : 				{
					"destination" : [ "obj-116", 1 ],
					"source" : [ "obj-23", 0 ]
				}

			}
, 			{
				"patchline" : 				{
					"destination" : [ "obj-97", 0 ],
					"source" : [ "obj-233", 0 ]
				}

			}
, 			{
				"patchline" : 				{
					"destination" : [ "obj-28", 0 ],
					"source" : [ "obj-235", 0 ]
				}

			}
, 			{
				"patchline" : 				{
					"destination" : [ "obj-157", 2 ],
					"midpoints" : [ 875.44712495803833, 831.0, 846.0, 831.0, 846.0, 837.0, 826.764197111129761, 837.0 ],
					"source" : [ "obj-236", 0 ]
				}

			}
, 			{
				"patchline" : 				{
					"destination" : [ "obj-208", 0 ],
					"midpoints" : [ 988.284302711486816, 855.0, 988.284302711486816, 855.0 ],
					"source" : [ "obj-237", 0 ]
				}

			}
, 			{
				"patchline" : 				{
					"destination" : [ "obj-155", 2 ],
					"midpoints" : [ 875.44712495803833, 876.0, 826.764197111129761, 876.0 ],
					"source" : [ "obj-238", 0 ]
				}

			}
, 			{
				"patchline" : 				{
					"destination" : [ "obj-25", 1 ],
					"source" : [ "obj-24", 0 ]
				}

			}
, 			{
				"patchline" : 				{
					"destination" : [ "obj-119", 0 ],
					"midpoints" : [ 1294.619946002960205, 942.0, 1294.619946002960205, 942.0 ],
					"source" : [ "obj-241", 0 ]
				}

			}
, 			{
				"patchline" : 				{
					"destination" : [ "obj-112", 1 ],
					"midpoints" : [ 1369.971716165542603, 1047.0, 1305.119946002960205, 1047.0 ],
					"source" : [ "obj-242", 0 ]
				}

			}
, 			{
				"patchline" : 				{
					"destination" : [ "obj-153", 2 ],
					"midpoints" : [ 875.44712495803833, 1119.0, 826.764197111129761, 1119.0 ],
					"source" : [ "obj-243", 0 ]
				}

			}
, 			{
				"patchline" : 				{
					"destination" : [ "obj-151", 2 ],
					"midpoints" : [ 875.44712495803833, 1161.0, 826.764197111129761, 1161.0 ],
					"source" : [ "obj-244", 0 ]
				}

			}
, 			{
				"patchline" : 				{
					"destination" : [ "obj-206", 0 ],
					"midpoints" : [ 1020.753454923629761, 1134.0, 1020.753454923629761, 1134.0 ],
					"source" : [ "obj-246", 0 ]
				}

			}
, 			{
				"patchline" : 				{
					"destination" : [ "obj-250", 0 ],
					"midpoints" : [ 958.695013761520386, 1398.0, 958.695013761520386, 1398.0 ],
					"source" : [ "obj-247", 0 ]
				}

			}
, 			{
				"patchline" : 				{
					"destination" : [ "obj-147", 2 ],
					"midpoints" : [ 854.94712495803833, 1431.0, 837.0, 1431.0, 837.0, 1428.0, 826.764197111129761, 1428.0 ],
					"source" : [ "obj-248", 0 ]
				}

			}
, 			{
				"patchline" : 				{
					"destination" : [ "obj-149", 2 ],
					"midpoints" : [ 854.94712495803833, 1392.0, 837.0, 1392.0, 837.0, 1389.0, 826.764197111129761, 1389.0 ],
					"source" : [ "obj-249", 0 ]
				}

			}
, 			{
				"patchline" : 				{
					"destination" : [ "obj-14", 1 ],
					"source" : [ "obj-25", 0 ]
				}

			}
, 			{
				"patchline" : 				{
					"destination" : [ "obj-147", 1 ],
					"midpoints" : [ 958.695013761520386, 1440.0, 837.0, 1440.0, 837.0, 1428.0, 796.764197111129761, 1428.0 ],
					"source" : [ "obj-250", 0 ]
				}

			}
, 			{
				"patchline" : 				{
					"destination" : [ "obj-254", 0 ],
					"midpoints" : [ 1002.483711719512939, 1605.0, 1002.483711719512939, 1605.0 ],
					"source" : [ "obj-251", 0 ]
				}

			}
, 			{
				"patchline" : 				{
					"destination" : [ "obj-143", 2 ],
					"midpoints" : [ 867.477972745895386, 1653.0, 837.0, 1653.0, 837.0, 1650.0, 826.764197111129761, 1650.0 ],
					"source" : [ "obj-252", 0 ]
				}

			}
, 			{
				"patchline" : 				{
					"destination" : [ "obj-145", 2 ],
					"midpoints" : [ 867.477972745895386, 1608.0, 826.764197111129761, 1608.0 ],
					"source" : [ "obj-253", 0 ]
				}

			}
, 			{
				"patchline" : 				{
					"destination" : [ "obj-143", 1 ],
					"midpoints" : [ 1002.483711719512939, 1653.0, 837.0, 1653.0, 837.0, 1650.0, 796.764197111129761, 1650.0 ],
					"source" : [ "obj-254", 0 ]
				}

			}
, 			{
				"patchline" : 				{
					"destination" : [ "obj-25", 0 ],
					"source" : [ "obj-26", 0 ]
				}

			}
, 			{
				"patchline" : 				{
					"destination" : [ "obj-216", 1 ],
					"midpoints" : [ 1201.699610710144043, 1302.0, 1107.069107055664062, 1302.0 ],
					"source" : [ "obj-263", 0 ]
				}

			}
, 			{
				"patchline" : 				{
					"destination" : [ "obj-219", 0 ],
					"midpoints" : [ 1096.569107055664062, 1200.0, 1096.569107055664062, 1200.0 ],
					"source" : [ "obj-264", 0 ]
				}

			}
, 			{
				"patchline" : 				{
					"destination" : [ "obj-103", 1 ],
					"midpoints" : [ 1369.971716165542603, 1527.0, 1314.0, 1527.0, 1314.0, 1524.0, 1304.730115652084351, 1524.0 ],
					"source" : [ "obj-265", 0 ]
				}

			}
, 			{
				"patchline" : 				{
					"destination" : [ "obj-109", 0 ],
					"midpoints" : [ 1294.230115652084351, 1419.0, 1294.230115652084351, 1419.0 ],
					"source" : [ "obj-266", 0 ]
				}

			}
, 			{
				"patchline" : 				{
					"destination" : [ "obj-36", 0 ],
					"source" : [ "obj-27", 0 ]
				}

			}
, 			{
				"patchline" : 				{
					"destination" : [ "obj-157", 1 ],
					"source" : [ "obj-28", 0 ]
				}

			}
, 			{
				"patchline" : 				{
					"destination" : [ "obj-32", 0 ],
					"source" : [ "obj-31", 0 ]
				}

			}
, 			{
				"patchline" : 				{
					"destination" : [ "obj-5", 0 ],
					"order" : 1,
					"source" : [ "obj-32", 0 ]
				}

			}
, 			{
				"patchline" : 				{
					"destination" : [ "obj-7", 0 ],
					"order" : 0,
					"source" : [ "obj-32", 0 ]
				}

			}
, 			{
				"patchline" : 				{
					"destination" : [ "obj-54", 0 ],
					"source" : [ "obj-33", 0 ]
				}

			}
, 			{
				"patchline" : 				{
					"destination" : [ "obj-33", 0 ],
					"source" : [ "obj-34", 0 ]
				}

			}
, 			{
				"patchline" : 				{
					"destination" : [ "obj-55", 0 ],
					"source" : [ "obj-35", 0 ]
				}

			}
, 			{
				"patchline" : 				{
					"destination" : [ "obj-35", 0 ],
					"source" : [ "obj-36", 0 ]
				}

			}
, 			{
				"patchline" : 				{
					"destination" : [ "obj-45", 0 ],
					"source" : [ "obj-37", 0 ]
				}

			}
, 			{
				"patchline" : 				{
					"destination" : [ "obj-48", 0 ],
					"source" : [ "obj-38", 0 ]
				}

			}
, 			{
				"patchline" : 				{
					"destination" : [ "obj-37", 1 ],
					"source" : [ "obj-39", 0 ]
				}

			}
, 			{
				"patchline" : 				{
					"destination" : [ "obj-37", 4 ],
					"source" : [ "obj-40", 0 ]
				}

			}
, 			{
				"patchline" : 				{
					"destination" : [ "obj-74", 0 ],
					"source" : [ "obj-42", 0 ]
				}

			}
, 			{
				"patchline" : 				{
					"destination" : [ "obj-38", 4 ],
					"source" : [ "obj-43", 0 ]
				}

			}
, 			{
				"patchline" : 				{
					"destination" : [ "obj-38", 1 ],
					"source" : [ "obj-44", 0 ]
				}

			}
, 			{
				"patchline" : 				{
					"destination" : [ "obj-50", 0 ],
					"source" : [ "obj-45", 0 ]
				}

			}
, 			{
				"patchline" : 				{
					"destination" : [ "obj-50", 1 ],
					"source" : [ "obj-48", 0 ]
				}

			}
, 			{
				"patchline" : 				{
					"destination" : [ "obj-6", 0 ],
					"source" : [ "obj-5", 0 ]
				}

			}
, 			{
				"patchline" : 				{
					"destination" : [ "obj-52", 1 ],
					"source" : [ "obj-50", 0 ]
				}

			}
, 			{
				"patchline" : 				{
					"destination" : [ "obj-31", 0 ],
					"source" : [ "obj-51", 0 ]
				}

			}
, 			{
				"patchline" : 				{
					"destination" : [ "obj-82", 0 ],
					"order" : 0,
					"source" : [ "obj-52", 0 ]
				}

			}
, 			{
				"patchline" : 				{
					"destination" : [ "obj-84", 0 ],
					"order" : 1,
					"source" : [ "obj-52", 0 ]
				}

			}
, 			{
				"patchline" : 				{
					"destination" : [ "obj-45", 1 ],
					"source" : [ "obj-53", 0 ]
				}

			}
, 			{
				"patchline" : 				{
					"destination" : [ "obj-57", 1 ],
					"midpoints" : [ 915.048632979393005, 1902.139547109603882, 776.548632979393005, 1902.139547109603882 ],
					"source" : [ "obj-56", 0 ]
				}

			}
, 			{
				"patchline" : 				{
					"destination" : [ "obj-37", 0 ],
					"order" : 1,
					"source" : [ "obj-57", 0 ]
				}

			}
, 			{
				"patchline" : 				{
					"destination" : [ "obj-38", 0 ],
					"midpoints" : [ 766.048632979393005, 1929.139547109603882, 981.284435868263245, 1929.139547109603882, 981.284435868263245, 2001.139547109603882, 996.525556802749634, 2001.139547109603882 ],
					"order" : 0,
					"source" : [ "obj-57", 0 ]
				}

			}
, 			{
				"patchline" : 				{
					"destination" : [ "obj-52", 0 ],
					"order" : 2,
					"source" : [ "obj-57", 0 ]
				}

			}
, 			{
				"patchline" : 				{
					"destination" : [ "obj-34", 0 ],
					"source" : [ "obj-59", 0 ]
				}

			}
, 			{
				"patchline" : 				{
					"destination" : [ "obj-48", 1 ],
					"source" : [ "obj-60", 0 ]
				}

			}
, 			{
				"patchline" : 				{
					"destination" : [ "obj-34", 0 ],
					"source" : [ "obj-63", 0 ]
				}

			}
, 			{
				"patchline" : 				{
					"destination" : [ "obj-36", 0 ],
					"source" : [ "obj-64", 0 ]
				}

			}
, 			{
				"patchline" : 				{
					"destination" : [ "obj-36", 0 ],
					"source" : [ "obj-65", 0 ]
				}

			}
, 			{
				"patchline" : 				{
					"destination" : [ "obj-73", 0 ],
					"source" : [ "obj-74", 0 ]
				}

			}
, 			{
				"patchline" : 				{
					"destination" : [ "obj-84", 1 ],
					"midpoints" : [ 833.721117496490479, 2237.402699947357178, 776.548632979393005, 2237.402699947357178 ],
					"source" : [ "obj-82", 0 ]
				}

			}
, 			{
				"patchline" : 				{
					"destination" : [ "obj-82", 1 ],
					"midpoints" : [ 883.408581376075745, 2206.981646418571472, 883.721117496490479, 2206.981646418571472 ],
					"source" : [ "obj-83", 0 ]
				}

			}
, 			{
				"patchline" : 				{
					"destination" : [ "obj-117", 0 ],
					"midpoints" : [ 766.048632979393005, 2268.297436952590942, 766.048632979393005, 2268.297436952590942 ],
					"source" : [ "obj-84", 0 ]
				}

			}
, 			{
				"patchline" : 				{
					"destination" : [ "obj-91", 1 ],
					"midpoints" : [ 915.764197111129761, 981.0, 786.0, 981.0, 786.0, 978.0, 777.264197111129761, 978.0 ],
					"source" : [ "obj-90", 0 ]
				}

			}
, 			{
				"patchline" : 				{
					"destination" : [ "obj-153", 0 ],
					"midpoints" : [ 766.764197111129761, 1008.0, 766.764197111129761, 1008.0 ],
					"source" : [ "obj-91", 0 ]
				}

			}
, 			{
				"patchline" : 				{
					"destination" : [ "obj-93", 1 ],
					"midpoints" : [ 797.764197111129761, 1569.0, 777.264197111129761, 1569.0 ],
					"source" : [ "obj-92", 0 ]
				}

			}
, 			{
				"patchline" : 				{
					"destination" : [ "obj-145", 0 ],
					"midpoints" : [ 766.764197111129761, 1608.0, 766.764197111129761, 1608.0 ],
					"source" : [ "obj-93", 0 ]
				}

			}
, 			{
				"patchline" : 				{
					"destination" : [ "obj-42", 0 ],
					"source" : [ "obj-97", 0 ]
				}

			}
, 			{
				"patchline" : 				{
					"destination" : [ "obj-170", 0 ],
					"midpoints" : [ 551.81299614906311, 972.0, 551.81299614906311, 972.0 ],
					"source" : [ "obj-98", 0 ]
				}

			}
 ]
	}

}
